<svg version="1.1" xmlns="http://www.w3.org/2000/svg" viewBox="0 0 2761.4138055093963 993.0967201794374" width="2761.4138055093963" height="993.0967201794374" filter="invert(93%) hue-rotate(180deg)">
  <!-- svg-source:excalidraw -->
  
  <defs>
    <style class="style-fonts">
      @font-face {
        font-family: "Virgil";
        src: url("https://excalidraw.com/Virgil.woff2");
      }
      @font-face {
        font-family: "Cascadia";
        src: url("https://excalidraw.com/Cascadia.woff2");
      }
      @font-face {
        font-family: "Assistant";
        src: url("https://excalidraw.com/Assistant-Regular.woff2");
      }
    </style>
    
  </defs>
  <g transform="translate(17.834360243015738 10) rotate(0 149.83285522460935 19.16666666666663)"><text x="0" y="0" font-family="Virgil, Segoe UI Emoji" font-size="30.6666666666666px" fill="#1e1e1e" text-anchor="start" style="white-space: pre;" direction="ltr" dominant-baseline="text-before-edge">dna_encode foo.txt</text></g><g transform="translate(17.834326334595744 131.77778455946168) rotate(0 58.829925537109375 12.5)"><text x="0" y="0" font-family="Virgil, Segoe UI Emoji" font-size="20px" fill="#1e1e1e" text-anchor="start" style="white-space: pre;" direction="ltr" dominant-baseline="text-before-edge">file address</text></g><g stroke-linecap="round"><g transform="translate(11.612097330689437 165.5555894639756) rotate(0 79.11114162868924 -0.34754698215556346)"><path d="M-0.1 -0.82 C25.99 -1.2, 130.79 -1.55, 157.31 -1.55 M-1.61 1.37 C24.79 1.05, 132.83 -0.31, 159.54 -0.46" stroke="#1e1e1e" stroke-width="2" fill="none"></path></g><g transform="translate(11.612097330689437 165.5555894639756) rotate(0 79.11114162868924 -0.34754698215556346)"><path d="M136.13 8.31 C143.21 3.62, 151.64 3.25, 159.54 -0.46 M136.13 8.31 C142.59 5.43, 149.41 3.9, 159.54 -0.46" stroke="#1e1e1e" stroke-width="2" fill="none"></path></g><g transform="translate(11.612097330689437 165.5555894639756) rotate(0 79.11114162868924 -0.34754698215556346)"><path d="M135.96 -8.79 C143.22 -7.27, 151.71 -1.43, 159.54 -0.46 M135.96 -8.79 C142.62 -6.72, 149.48 -3.3, 159.54 -0.46" stroke="#1e1e1e" stroke-width="2" fill="none"></path></g></g><mask></mask><g transform="translate(448.46348689774686 140.1684909396697) rotate(0 28.01996612548828 12.5)"><text x="0" y="0" font-family="Virgil, Segoe UI Emoji" font-size="20px" fill="#1e1e1e" text-anchor="start" style="white-space: pre;" direction="ltr" dominant-baseline="text-before-edge">n bits</text></g><g stroke-linecap="round" transform="translate(539.1302620713584 109.94628906249955) rotate(0 85.33335367838538 55)"><path d="M27.5 0 C65.17 1.85, 105.18 -0.11, 143.17 0 M27.5 0 C69.41 -0.81, 110.76 -0.44, 143.17 0 M143.17 0 C161 1.22, 171.95 7.67, 170.67 27.5 M143.17 0 C161.75 -1.74, 172.72 11.08, 170.67 27.5 M170.67 27.5 C173.09 46.32, 171.68 67.06, 170.67 82.5 M170.67 27.5 C170.82 43.04, 170.87 58.15, 170.67 82.5 M170.67 82.5 C171.29 100.25, 159.92 110.6, 143.17 110 M170.67 82.5 C169.03 101.97, 160.34 110.27, 143.17 110 M143.17 110 C100.07 108.28, 58.77 111.69, 27.5 110 M143.17 110 C118.3 109.87, 93.76 110.12, 27.5 110 M27.5 110 C10.85 111.24, 1.8 102.23, 0 82.5 M27.5 110 C8.45 112.15, 0.18 102.07, 0 82.5 M0 82.5 C0.98 72.73, -0.69 60.03, 0 27.5 M0 82.5 C0.19 69.91, 0.25 59, 0 27.5 M0 27.5 C-0.68 8.41, 9.11 -1.63, 27.5 0 M0 27.5 C-1.37 10.07, 8.02 1.36, 27.5 0" stroke="#1e1e1e" stroke-width="2" fill="none"></path></g><g transform="translate(558.3636859401735 114.94628906249955) rotate(0 66.09992980957037 50)"><text x="66.09992980957031" y="0" font-family="Virgil, Segoe UI Emoji" font-size="20px" fill="#1e1e1e" text-anchor="middle" style="white-space: pre;" direction="ltr" dominant-baseline="text-before-edge">1. binary to </text><text x="66.09992980957031" y="25" font-family="Virgil, Segoe UI Emoji" font-size="20px" fill="#1e1e1e" text-anchor="middle" style="white-space: pre;" direction="ltr" dominant-baseline="text-before-edge">ternary</text><text x="66.09992980957031" y="50" font-family="Virgil, Segoe UI Emoji" font-size="20px" fill="#1e1e1e" text-anchor="middle" style="white-space: pre;" direction="ltr" dominant-baseline="text-before-edge">2. chunk the </text><text x="66.09992980957031" y="75" font-family="Virgil, Segoe UI Emoji" font-size="20px" fill="#1e1e1e" text-anchor="middle" style="white-space: pre;" direction="ltr" dominant-baseline="text-before-edge">trits</text></g><g stroke-linecap="round" transform="translate(178.2413528374169 100.16845703124955) rotate(0 121.33334689670136 64.00000678168396)"><path d="M32 0 C94.75 1.61, 159.54 -0.66, 210.67 0 M32 0 C77.05 0.91, 121.7 1.6, 210.67 0 M210.67 0 C232.53 0.65, 241.05 9.41, 242.67 32 M210.67 0 C230.22 1.98, 241.33 10.02, 242.67 32 M242.67 32 C244.64 46.28, 244.7 64.23, 242.67 96 M242.67 32 C242 55.93, 241.94 80.73, 242.67 96 M242.67 96 C244.09 115.71, 233.83 126.88, 210.67 128 M242.67 96 C241.06 117.87, 231.41 130.24, 210.67 128 M210.67 128 C143.53 127.33, 73.72 126.1, 32 128 M210.67 128 C152.7 129.13, 96.37 130.49, 32 128 M32 128 C9.71 129.5, -1.79 119.11, 0 96 M32 128 C11.67 130.2, 2.07 116.46, 0 96 M0 96 C-1.08 79.84, 0.91 60.52, 0 32 M0 96 C1.22 73.1, -0.13 50.59, 0 32 M0 32 C1.42 11.24, 9.78 -1.73, 32 0 M0 32 C-2.07 11.08, 10.58 -1.98, 32 0" stroke="#1e1e1e" stroke-width="2" fill="none"></path></g><g transform="translate(191.37482485618852 126.66846381293362) rotate(0 108.19987487792969 37.5)"><text x="108.19987487792969" y="0" font-family="Virgil, Segoe UI Emoji" font-size="20px" fill="#1e1e1e" text-anchor="middle" style="white-space: pre;" direction="ltr" dominant-baseline="text-before-edge">1. retrieve file</text><text x="108.19987487792969" y="25" font-family="Virgil, Segoe UI Emoji" font-size="20px" fill="#1e1e1e" text-anchor="middle" style="white-space: pre;" direction="ltr" dominant-baseline="text-before-edge">2. text compression</text><text x="108.19987487792969" y="50" font-family="Virgil, Segoe UI Emoji" font-size="20px" fill="#1e1e1e" text-anchor="middle" style="white-space: pre;" direction="ltr" dominant-baseline="text-before-edge">3. get bimary encoding</text></g><g stroke-linecap="round"><g transform="translate(427.130275634726 168.09412189575892) rotate(0 53.77777099609375 -0.37647556688136774)"><path d="M1.07 0.21 C18.69 0.25, 88.77 0.53, 106.7 0.25 M0.17 -0.73 C18.08 -1.01, 90.92 -1.39, 108.97 -1.34" stroke="#1e1e1e" stroke-width="2" fill="none"></path></g><g transform="translate(427.130275634726 168.09412189575892) rotate(0 53.77777099609375 -0.37647556688136774)"><path d="M85.5 7.26 C94.78 2.36, 105.05 2.32, 108.97 -1.34 M85.5 7.26 C91.95 5.37, 96.46 3.56, 108.97 -1.34" stroke="#1e1e1e" stroke-width="2" fill="none"></path></g><g transform="translate(427.130275634726 168.09412189575892) rotate(0 53.77777099609375 -0.37647556688136774)"><path d="M85.46 -9.84 C94.76 -8.23, 105.04 -1.76, 108.97 -1.34 M85.46 -9.84 C91.96 -7.56, 96.48 -5.21, 108.97 -1.34" stroke="#1e1e1e" stroke-width="2" fill="none"></path></g></g><mask></mask><g stroke-opacity="0.3" fill-opacity="0.3" stroke-linecap="round" transform="translate(976.52380638146 62.215379081585525) rotate(0 136.8286982571725 17)"><path d="M8.5 0 C79.17 -3.9, 154.97 -2.82, 265.16 0 C269.4 2.3, 272.94 0.95, 273.66 8.5 C273.84 11.09, 276.33 18.31, 273.66 25.5 C275.73 33.05, 272.34 35.9, 265.16 34 C170.26 31.98, 72.77 33.06, 8.5 34 C5.49 31.36, -2.9 30.71, 0 25.5 C-1.94 22, -1.92 15.26, 0 8.5 C0.11 3.87, 6.01 -0.65, 8.5 0" stroke="none" stroke-width="0" fill="#868e96"></path><path d="M8.5 0 C93.17 0.05, 178.54 -0.12, 265.16 0 M8.5 0 C95.01 -2.39, 180.25 -2.64, 265.16 0 M265.16 0 C269 0.43, 275.15 1.86, 273.66 8.5 M265.16 0 C272.26 0.82, 274.53 3.95, 273.66 8.5 M273.66 8.5 C275.15 13.34, 272.43 15.8, 273.66 25.5 M273.66 8.5 C273.67 11.48, 274.6 16.25, 273.66 25.5 M273.66 25.5 C272.04 30.24, 270.09 35, 265.16 34 M273.66 25.5 C274.36 32.57, 271.06 33.58, 265.16 34 M265.16 34 C190.64 33.99, 118.32 34.78, 8.5 34 M265.16 34 C169.35 33.28, 72.43 33.33, 8.5 34 M8.5 34 C3.63 34.1, 1.23 32.82, 0 25.5 M8.5 34 C4.24 32.39, -1.61 29.67, 0 25.5 M0 25.5 C-0.88 17.42, 1.17 13.77, 0 8.5 M0 25.5 C0.54 20.44, -0.5 17.33, 0 8.5 M0 8.5 C-1.81 0.96, 4.76 -0.5, 8.5 0 M0 8.5 C-1.64 1.75, 4.66 2.16, 8.5 0" stroke="#000000" stroke-width="1" fill="none"></path></g><g transform="translate(996.1650046386324 67.21537908158552) rotate(0 117.1875 12)"><text x="117.1875" y="0" font-family="Cascadia, Segoe UI Emoji" font-size="20px" fill="#1e1e1e" text-anchor="middle" style="white-space: pre;" direction="ltr" dominant-baseline="text-before-edge">for every seq in TS:</text></g><g stroke-opacity="0.5" fill-opacity="0.5" stroke-linecap="round" transform="translate(977.0658782893393 55.236900763978156) rotate(0 3.006088061002629 16.47336257429413)"><path d="M1.5 0 C2.75 -0.16, 3.37 0.28, 4.51 0 C5 -1.36, 6.47 -0.11, 6.01 1.5 C8.38 11.9, 7.54 25.36, 6.01 31.44 C7.11 33.82, 7.34 32.91, 4.51 32.95 C3.39 32.96, 3.18 32.65, 1.5 32.95 C-1.6 32.62, -0.37 34.06, 0 31.44 C-1.25 24.35, 0.3 18.89, 0 1.5 C2.29 0.03, 3.02 2.49, 1.5 0" stroke="none" stroke-width="0" fill="#000000"></path><path d="M1.5 0 C2.41 -0.07, 3.14 -0.13, 4.51 0 M1.5 0 C2.64 -0.06, 3.78 0.03, 4.51 0 M4.51 0 C6.26 -0.49, 6.64 0.86, 6.01 1.5 M4.51 0 C5.95 0.56, 5.17 0.96, 6.01 1.5 M6.01 1.5 C5.38 7.72, 5.36 15.05, 6.01 31.44 M6.01 1.5 C6.49 7.72, 5.59 13.48, 6.01 31.44 M6.01 31.44 C5.64 32.95, 5.82 33.56, 4.51 32.95 M6.01 31.44 C6.13 32.24, 5.36 32.94, 4.51 32.95 M4.51 32.95 C3.52 32.94, 2.58 33.05, 1.5 32.95 M4.51 32.95 C3.81 33.01, 3.09 32.96, 1.5 32.95 M1.5 32.95 C1.12 33.77, 0.61 31.75, 0 31.44 M1.5 32.95 C-0.3 32.2, 1.02 33.52, 0 31.44 M0 31.44 C0.85 23.69, -0.36 14.93, 0 1.5 M0 31.44 C-0.34 20.05, -0.57 7.49, 0 1.5 M0 1.5 C0.96 0.25, -0.21 -0.47, 1.5 0 M0 1.5 C0.91 1.58, 0.29 -0.3, 1.5 0" stroke="#000000" stroke-width="1" fill="none"></path></g><g stroke-opacity="0.3" fill-opacity="0.3" stroke-linecap="round" transform="translate(1011.6347208237344 98.8906860351558) rotate(0 195.49541917731153 29)"><path d="M14.5 0 C106.01 -3.74, 198.33 -3.52, 376.49 0 C389.15 -0.83, 394.12 3.67, 390.99 14.5 C389.17 27.57, 392.98 34, 390.99 43.5 C394.22 51.94, 388.94 60.33, 376.49 58 C232.04 55.81, 90.37 57.28, 14.5 58 C4.42 54.43, -3.19 50.81, 0 43.5 C-2.85 37.06, 0.72 25.11, 0 14.5 C1.95 2.25, 5.39 -0.17, 14.5 0" stroke="none" stroke-width="0" fill="#868e96"></path><path d="M14.5 0 C110.24 0.91, 204.27 0.54, 376.49 0 M14.5 0 C88.3 -2.3, 163.4 -2.15, 376.49 0 M376.49 0 C385.49 0.84, 391.02 3.39, 390.99 14.5 M376.49 0 C386.23 -1.25, 390 3.6, 390.99 14.5 M390.99 14.5 C389.92 23.03, 391.71 28.3, 390.99 43.5 M390.99 14.5 C391.38 26.44, 390.64 36.64, 390.99 43.5 M390.99 43.5 C390.16 52.43, 385.1 56.2, 376.49 58 M390.99 43.5 C389.11 50.87, 383.86 57.68, 376.49 58 M376.49 58 C241.79 56.76, 107.11 56.22, 14.5 58 M376.49 58 C269 58.89, 162.37 58.73, 14.5 58 M14.5 58 C2.97 58.71, 0.89 54.85, 0 43.5 M14.5 58 C5.76 57.42, 1.02 51.68, 0 43.5 M0 43.5 C1.75 31.82, -0.55 19.77, 0 14.5 M0 43.5 C-0.07 36.42, -0.89 30.83, 0 14.5 M0 14.5 C-0.88 3.32, 6.75 0.8, 14.5 0 M0 14.5 C-0.24 6.58, 6.8 -2.16, 14.5 0" stroke="#000000" stroke-width="1" fill="none"></path></g><g transform="translate(1025.489515001046 103.8906860351558) rotate(0 181.640625 24)"><text x="181.640625" y="0" font-family="Cascadia, Segoe UI Emoji" font-size="20px" fill="#1e1e1e" text-anchor="middle" style="white-space: pre;" direction="ltr" dominant-baseline="text-before-edge">for every base in [A, T, G, C]:</text><text x="181.640625" y="24" font-family="Cascadia, Segoe UI Emoji" font-size="20px" fill="#1e1e1e" text-anchor="middle" style="white-space: pre;" direction="ltr" dominant-baseline="text-before-edge">base_encoding = base</text></g><g stroke-opacity="0.5" fill-opacity="0.5" stroke-linecap="round" transform="translate(1012.1767927316137 104.80105252549106) rotate(0 3.006088061002629 16.47336257429413)"><path d="M1.5 0 C2.64 -0.08, 3.47 -0.12, 4.51 0 C7.63 -0.08, 8.52 -0.8, 6.01 1.5 C8.56 11.26, 8.24 24.49, 6.01 31.44 C8.54 32.41, 5.1 32.22, 4.51 32.95 C3.77 32.56, 2.77 32.69, 1.5 32.95 C1.25 31.91, -0.06 30.24, 0 31.44 C1.35 18.02, 0.35 8.21, 0 1.5 C-0.88 0.53, 2.2 -0.73, 1.5 0" stroke="none" stroke-width="0" fill="#000000"></path><path d="M1.5 0 C2.46 -0.06, 3.84 -0.14, 4.51 0 M1.5 0 C2.34 0.03, 3.23 -0.06, 4.51 0 M4.51 0 C5.54 -0.54, 5.58 -0.03, 6.01 1.5 M4.51 0 C5.1 0.01, 5.39 -0.11, 6.01 1.5 M6.01 1.5 C6.89 11.6, 5.14 22.49, 6.01 31.44 M6.01 1.5 C5.76 12.86, 5.7 24.13, 6.01 31.44 M6.01 31.44 C5.19 31.45, 4.51 32.81, 4.51 32.95 M6.01 31.44 C6.84 31.95, 5.1 32.78, 4.51 32.95 M4.51 32.95 C3.7 33.01, 3 32.8, 1.5 32.95 M4.51 32.95 C3.74 32.96, 3.15 33, 1.5 32.95 M1.5 32.95 C0.91 32.7, 0.44 31.8, 0 31.44 M1.5 32.95 C1.54 32.3, -0.02 33.36, 0 31.44 M0 31.44 C-0.81 23.91, -0.11 14.78, 0 1.5 M0 31.44 C-0.13 24.71, 0.57 18.93, 0 1.5 M0 1.5 C-0.1 1.26, 1.36 -0.94, 1.5 0 M0 1.5 C-0.56 1.32, 1.36 0.31, 1.5 0" stroke="#000000" stroke-width="1" fill="none"></path></g><g stroke-opacity="0.3" fill-opacity="0.3" stroke-linecap="round" transform="translate(1057.6350870346712 165.9462483723953) rotate(0 200.38426737609632 18.888888888888914)"><path d="M9.44 0 C126.02 -2.37, 247.24 -3.12, 391.32 0 C396.35 1.2, 400.29 1.44, 400.77 9.44 C400.24 18.26, 402.33 22.73, 400.77 28.33 C397.94 35.36, 398.29 40.73, 391.32 37.78 C271.03 37.08, 147.12 35.94, 9.44 37.78 C-0.2 39.95, 0.55 34.46, 0 28.33 C1.84 19.46, -2.99 17.76, 0 9.44 C-1.72 1.62, 3.91 1.57, 9.44 0" stroke="none" stroke-width="0" fill="#868e96"></path><path d="M9.44 0 C134.74 -1.87, 261.62 -0.26, 391.32 0 M9.44 0 C129.52 -1.3, 249.16 -1.79, 391.32 0 M391.32 0 C398.41 1.33, 400.49 3.29, 400.77 9.44 M391.32 0 C397.51 -0.64, 399.23 1.29, 400.77 9.44 M400.77 9.44 C399.1 15.41, 399.56 22.61, 400.77 28.33 M400.77 9.44 C401.74 16.5, 400.78 23.45, 400.77 28.33 M400.77 28.33 C402.04 35.87, 397.01 38.52, 391.32 37.78 M400.77 28.33 C401.1 33.48, 397.19 39.74, 391.32 37.78 M391.32 37.78 C264.81 40.03, 138.21 40.55, 9.44 37.78 M391.32 37.78 C306.73 39.48, 223.12 38.91, 9.44 37.78 M9.44 37.78 C2.99 39.17, 0.8 35.05, 0 28.33 M9.44 37.78 C2.86 39.75, 0.34 35.76, 0 28.33 M0 28.33 C-0.26 21.17, 0.99 16.76, 0 9.44 M0 28.33 C0.73 23.66, 0.69 17.8, 0 9.44 M0 9.44 C-0.01 4.91, 1.23 0.13, 9.44 0 M0 9.44 C-1.98 4.73, 2.76 0.73, 9.44 0" stroke="#000000" stroke-width="1" fill="none"></path></g><g transform="translate(1082.2381044107674 172.83513726128422) rotate(0 175.78125 12)"><text x="175.78125" y="0" font-family="Cascadia, Segoe UI Emoji" font-size="20px" fill="#1e1e1e" text-anchor="middle" style="white-space: pre;" direction="ltr" dominant-baseline="text-before-edge">for every (prev,curr) in seq: </text></g><g stroke-opacity="0.5" fill-opacity="0.5" stroke-linecap="round" transform="translate(1058.1771589425505 170.9677395372098) rotate(0 3.006088061002629 16.47336257429413)"><path d="M1.5 0 C2.14 0.16, 3 -0.15, 4.51 0 C7.4 0.16, 4.95 0.08, 6.01 1.5 C4.15 12.58, 6.67 24.74, 6.01 31.44 C6.54 30.35, 5.3 35.38, 4.51 32.95 C3.3 33.15, 2.87 32.9, 1.5 32.95 C0.33 31.71, -1.8 33.73, 0 31.44 C-0.88 24.29, 0.91 20.47, 0 1.5 C1.61 -0.51, -1.08 0.49, 1.5 0" stroke="none" stroke-width="0" fill="#000000"></path><path d="M1.5 0 C2.28 0.06, 3.11 0.06, 4.51 0 M1.5 0 C2.51 0.06, 3.44 0.01, 4.51 0 M4.51 0 C5.46 -0.28, 5.34 -0.31, 6.01 1.5 M4.51 0 C5.58 0.01, 6.77 -0.52, 6.01 1.5 M6.01 1.5 C6.87 11.67, 5.83 20.88, 6.01 31.44 M6.01 1.5 C6.3 9.51, 5.83 17.08, 6.01 31.44 M6.01 31.44 C6.16 31.95, 5.33 33.8, 4.51 32.95 M6.01 31.44 C6.36 32.89, 6.63 32.54, 4.51 32.95 M4.51 32.95 C3.48 32.83, 2.8 32.81, 1.5 32.95 M4.51 32.95 C3.53 32.99, 2.6 32.95, 1.5 32.95 M1.5 32.95 C0.38 33.8, 0.15 32.94, 0 31.44 M1.5 32.95 C0.63 33.2, 0.89 32.31, 0 31.44 M0 31.44 C-0.16 25.19, 0.8 18.49, 0 1.5 M0 31.44 C-0.13 20.21, -0.61 8.13, 0 1.5 M0 1.5 C-0.86 1.19, 0.33 0.32, 1.5 0 M0 1.5 C0.1 1.56, 0.91 -0.7, 1.5 0" stroke="#000000" stroke-width="1" fill="none"></path></g><g stroke-opacity="0.3" fill-opacity="0.3" stroke-linecap="round" transform="translate(1145.1904933931785 211.18438278296844) rotate(0 200.38426737609632 30)"><path d="M15 0 C94.95 -1.23, 171.82 2.1, 385.77 0 C392.94 3.18, 402.92 1.89, 400.77 15 C400 23.17, 402.55 39.44, 400.77 45 C400.85 53.72, 398.77 58.73, 385.77 60 C257.61 55.82, 130.55 57.64, 15 60 C3.42 61.17, 2.11 55.25, 0 45 C-2.65 35.05, 3.48 31.27, 0 15 C-2.87 5.55, 7.41 1.14, 15 0" stroke="none" stroke-width="0" fill="#868e96"></path><path d="M15 0 C134.71 1.59, 256.17 1.5, 385.77 0 M15 0 C92.87 -0.53, 170.81 -0.53, 385.77 0 M385.77 0 C395.18 -0.3, 402.24 5.52, 400.77 15 M385.77 0 C395.91 0.04, 400.61 7.26, 400.77 15 M400.77 15 C401.61 22.84, 401.04 26.8, 400.77 45 M400.77 15 C401.15 26.81, 400.08 36.77, 400.77 45 M400.77 45 C401.98 54.07, 396.22 60.1, 385.77 60 M400.77 45 C399.8 54.31, 396.63 61.58, 385.77 60 M385.77 60 C274.29 59.14, 163.98 59.29, 15 60 M385.77 60 C264.69 58.84, 142.01 58.97, 15 60 M15 60 C5.23 58.27, -1.15 53.94, 0 45 M15 60 C6.38 58.37, 1.23 57.11, 0 45 M0 45 C-0.38 34.21, -0.95 26.33, 0 15 M0 45 C-0.91 37.65, -0.05 31.52, 0 15 M0 15 C0.41 6.31, 3.98 -0.52, 15 0 M0 15 C-1.44 4.61, 6.51 0.34, 15 0" stroke="#000000" stroke-width="1" fill="none"></path></g><g transform="translate(1163.9341357692747 217.18438278296844) rotate(0 181.640625 24)"><text x="181.640625" y="0" font-family="Cascadia, Segoe UI Emoji" font-size="20px" fill="#1e1e1e" text-anchor="middle" style="white-space: pre;" direction="ltr" dominant-baseline="text-before-edge">next_base = get_base(prev,cur)</text><text x="181.640625" y="24" font-family="Cascadia, Segoe UI Emoji" font-size="20px" fill="#1e1e1e" text-anchor="middle" style="white-space: pre;" direction="ltr" dominant-baseline="text-before-edge">base_encoding.concat(next_base)</text></g><g stroke-opacity="0.5" fill-opacity="0.5" stroke-linecap="round" transform="translate(1147.0659800145993 216.20587394778295) rotate(0 3.006088061002629 16.47336257429413)"><path d="M1.5 0 C1.91 0.31, 3.16 -0.37, 4.51 0 C7.02 0.42, 6.97 -0.12, 6.01 1.5 C6.26 7.42, 8.37 14.27, 6.01 31.44 C7.2 34.94, 3.05 32.97, 4.51 32.95 C3.48 33.1, 3.01 33, 1.5 32.95 C-0.95 33.38, -1.51 30.59, 0 31.44 C-2.46 25.05, 1.35 18.67, 0 1.5 C1.15 -0.33, 1.36 -0.49, 1.5 0" stroke="none" stroke-width="0" fill="#000000"></path><path d="M1.5 0 C2.14 0.14, 3.12 0.06, 4.51 0 M1.5 0 C2.61 -0.02, 3.82 0.01, 4.51 0 M4.51 0 C5.57 0.02, 5.94 1.48, 6.01 1.5 M4.51 0 C4.47 -0.11, 6.37 1, 6.01 1.5 M6.01 1.5 C6.64 13.12, 6.39 24.39, 6.01 31.44 M6.01 1.5 C6.2 13.2, 6.01 25.39, 6.01 31.44 M6.01 31.44 C5.59 32.15, 5.89 33.63, 4.51 32.95 M6.01 31.44 C6 31.78, 5.46 32.47, 4.51 32.95 M4.51 32.95 C3.83 32.8, 3.03 33.07, 1.5 32.95 M4.51 32.95 C3.83 32.87, 3.09 32.9, 1.5 32.95 M1.5 32.95 C1.1 32.24, 0.53 33.36, 0 31.44 M1.5 32.95 C0.43 32.06, 0.97 32.09, 0 31.44 M0 31.44 C-0.79 26.38, 0.36 18.74, 0 1.5 M0 31.44 C0.07 25.75, -0.29 19.27, 0 1.5 M0 1.5 C-0.62 0.33, 1.16 0.15, 1.5 0 M0 1.5 C-1.03 0.27, 0.45 0.98, 1.5 0" stroke="#000000" stroke-width="1" fill="none"></path></g><g stroke-linecap="round" transform="translate(942.6858311902815 17.50179714626688) rotate(0 325.7777574327257 147.111104329427)"><path d="M32 0 C208.21 -2.55, 383.5 -1.94, 619.56 0 M32 0 C199.11 -1.32, 366.7 -0.71, 619.56 0 M619.56 0 C640.32 -0.28, 649.85 11.3, 651.56 32 M619.56 0 C640.59 -1.6, 653.63 12.14, 651.56 32 M651.56 32 C651.28 83.31, 651.12 133.56, 651.56 262.22 M651.56 32 C652.02 103.83, 650.72 175.57, 651.56 262.22 M651.56 262.22 C652.88 283.64, 641.67 295.44, 619.56 294.22 M651.56 262.22 C652.31 285.57, 639.79 295.6, 619.56 294.22 M619.56 294.22 C425.44 292.1, 231.7 291.88, 32 294.22 M619.56 294.22 C455.26 295.39, 290.14 294.92, 32 294.22 M32 294.22 C11.55 294.87, -1.07 283.49, 0 262.22 M32 294.22 C12.4 292.69, -1.94 285.47, 0 262.22 M0 262.22 C0.65 211.39, 0.72 162.64, 0 32 M0 262.22 C-0.99 184.17, -2.5 106.54, 0 32 M0 32 C0.45 12.33, 12.6 0.86, 32 0 M0 32 C-0.57 9.59, 10.69 2.11, 32 0" stroke="#1e1e1e" stroke-width="2" fill="none"></path></g><g stroke-linecap="round"><g transform="translate(717.7969151746565 165.1976396838645) rotate(0 108.88892279730908 0.6254621132084139)"><path d="M-0.84 -0.3 C35.58 0.21, 181.14 1.5, 217.53 1.86 M0.92 -1.5 C37.24 -1.25, 180.5 -0.16, 216.46 0.06" stroke="#1e1e1e" stroke-width="2" fill="none"></path></g><g transform="translate(717.7969151746565 165.1976396838645) rotate(0 108.88892279730908 0.6254621132084139)"><path d="M192.91 8.45 C197.64 6.37, 204.31 4.55, 216.46 0.06 M192.91 8.45 C200.71 6.14, 209.6 2.95, 216.46 0.06" stroke="#1e1e1e" stroke-width="2" fill="none"></path></g><g transform="translate(717.7969151746565 165.1976396838645) rotate(0 108.88892279730908 0.6254621132084139)"><path d="M193.03 -8.65 C197.57 -6.99, 204.21 -5.07, 216.46 0.06 M193.03 -8.65 C200.64 -4.95, 209.49 -2.12, 216.46 0.06" stroke="#1e1e1e" stroke-width="2" fill="none"></path></g></g><mask></mask><g transform="translate(740.9080805392398 141.05736626519047) rotate(0 48.099945068359375 25)"><text x="0" y="0" font-family="Virgil, Segoe UI Emoji" font-size="20px" fill="#1e1e1e" text-anchor="start" style="white-space: pre;" direction="ltr" dominant-baseline="text-before-edge">z/y trit </text><text x="0" y="25" font-family="Virgil, Segoe UI Emoji" font-size="20px" fill="#1e1e1e" text-anchor="start" style="white-space: pre;" direction="ltr" dominant-baseline="text-before-edge">sequences</text></g><g stroke-linecap="round" transform="translate(1847.0168485785189 100.16845703124955) rotate(0 149.77776421440967 78.22223239474818)"><path d="M32 0 C88.34 0.44, 144.85 1.64, 267.56 0 M32 0 C121.36 0.5, 209.07 -0.09, 267.56 0 M267.56 0 C288.11 1.33, 301.25 12.45, 299.56 32 M267.56 0 C289.57 -2.22, 300.62 8.82, 299.56 32 M299.56 32 C299.4 62.56, 300.04 91.59, 299.56 124.44 M299.56 32 C299.59 63.72, 299.6 94.93, 299.56 124.44 M299.56 124.44 C297.67 145.72, 290.64 156.02, 267.56 156.44 M299.56 124.44 C298.76 146.06, 287.57 155.29, 267.56 156.44 M267.56 156.44 C198.48 157.82, 127.63 156.28, 32 156.44 M267.56 156.44 C174.01 155.45, 79.05 154.63, 32 156.44 M32 156.44 C11.74 157.3, 1.09 145.67, 0 124.44 M32 156.44 C10.43 158.59, -0.17 143.61, 0 124.44 M0 124.44 C-1.54 96.75, -0.97 66.19, 0 32 M0 124.44 C1.08 104.99, 1.43 86.14, 0 32 M0 32 C-1.16 9.1, 10.97 1.91, 32 0 M0 32 C1.92 11.52, 12.7 -0.01, 32 0" stroke="#1e1e1e" stroke-width="2" fill="none"></path></g><g transform="translate(1885.5247458495692 115.89068942599783) rotate(0 111.26986694335938 62.5)"><text x="111.26986694335938" y="0" font-family="Virgil, Segoe UI Emoji" font-size="20px" fill="#1e1e1e" text-anchor="middle" style="white-space: pre;" direction="ltr" dominant-baseline="text-before-edge">1. choose most stable </text><text x="111.26986694335938" y="25" font-family="Virgil, Segoe UI Emoji" font-size="20px" fill="#1e1e1e" text-anchor="middle" style="white-space: pre;" direction="ltr" dominant-baseline="text-before-edge">nucleotide sequence</text><text x="111.26986694335938" y="50" font-family="Virgil, Segoe UI Emoji" font-size="20px" fill="#1e1e1e" text-anchor="middle" style="white-space: pre;" direction="ltr" dominant-baseline="text-before-edge">2. generate primers</text><text x="111.26986694335938" y="75" font-family="Virgil, Segoe UI Emoji" font-size="20px" fill="#1e1e1e" text-anchor="middle" style="white-space: pre;" direction="ltr" dominant-baseline="text-before-edge">3. apply ECC</text><text x="111.26986694335938" y="100" font-family="Virgil, Segoe UI Emoji" font-size="20px" fill="#1e1e1e" text-anchor="middle" style="white-space: pre;" direction="ltr" dominant-baseline="text-before-edge">4. collect metadata</text></g><g stroke-linecap="round"><g transform="translate(1600.794585666193 176.8675250443655) rotate(0 122.22225613064222 -1.4707549227748586)"><path d="M-0.98 -0.03 C39.62 -0.55, 203.27 -1.62, 244 -1.97 M0.71 -1.09 C41.07 -1.42, 201.98 -3.09, 242.82 -3.58" stroke="#1e1e1e" stroke-width="2" fill="none"></path></g><g transform="translate(1600.794585666193 176.8675250443655) rotate(0 122.22225613064222 -1.4707549227748586)"><path d="M219.42 5.23 C227.12 1.73, 236.63 -2.19, 242.82 -3.58 M219.42 5.23 C228.24 2.19, 236.21 -0.28, 242.82 -3.58" stroke="#1e1e1e" stroke-width="2" fill="none"></path></g><g transform="translate(1600.794585666193 176.8675250443655) rotate(0 122.22225613064222 -1.4707549227748586)"><path d="M219.23 -11.87 C227.16 -9.64, 236.73 -7.84, 242.82 -3.58 M219.23 -11.87 C227.98 -8.57, 236.02 -4.71, 242.82 -3.58" stroke="#1e1e1e" stroke-width="2" fill="none"></path></g></g><mask></mask><g transform="translate(1613.2390436740059 147.27956136067678) rotate(0 110.03654479980457 27.22222222222217)"><text x="0" y="0" font-family="Virgil, Segoe UI Emoji" font-size="21.77777777777774px" fill="#1e1e1e" text-anchor="start" style="white-space: pre;" direction="ltr" dominant-baseline="text-before-edge">4 * z/y </text><text x="0" y="27.222222222222175" font-family="Virgil, Segoe UI Emoji" font-size="21.77777777777774px" fill="#1e1e1e" text-anchor="start" style="white-space: pre;" direction="ltr" dominant-baseline="text-before-edge">nucleotide sequences</text></g><g stroke-linecap="round"><g transform="translate(2147.4004494492865 180.16845703124955) rotate(0 80.44443766276049 -0.44443766276037877)"><path d="M0.06 0.63 C26.75 0.51, 133.83 -1.22, 160.44 -1.66 M-1.37 -0.08 C25.1 0.02, 132.03 -0.33, 159.26 -0.52" stroke="#1e1e1e" stroke-width="2" fill="none"></path></g><g transform="translate(2147.4004494492865 180.16845703124955) rotate(0 80.44443766276049 -0.44443766276037877)"><path d="M135.81 8.14 C144.56 4.56, 149.87 0.58, 159.26 -0.52 M135.81 8.14 C140.2 6.03, 146.4 5.11, 159.26 -0.52" stroke="#1e1e1e" stroke-width="2" fill="none"></path></g><g transform="translate(2147.4004494492865 180.16845703124955) rotate(0 80.44443766276049 -0.44443766276037877)"><path d="M135.73 -8.96 C144.38 -6.97, 149.7 -5.39, 159.26 -0.52 M135.73 -8.96 C139.97 -7.5, 146.18 -4.86, 159.26 -0.52" stroke="#1e1e1e" stroke-width="2" fill="none"></path></g></g><mask></mask><g transform="translate(2180.28951466196 200.61299641927053) rotate(0 133.339111328125 32.99999660915796)"><text x="0" y="0" font-family="Virgil, Segoe UI Emoji" font-size="26.399997287326368px" fill="#1e1e1e" text-anchor="start" style="white-space: pre;" direction="ltr" dominant-baseline="text-before-edge">z/y </text><text x="0" y="32.99999660915796" font-family="Virgil, Segoe UI Emoji" font-size="26.399997287326368px" fill="#1e1e1e" text-anchor="start" style="white-space: pre;" direction="ltr" dominant-baseline="text-before-edge">nucleotide sequences</text></g><g stroke-linecap="round" transform="translate(2346.7088300428227 110.80260392644732) rotate(0 46.22784355220597 12)"><path d="M0.19 1.12 L91.55 1.54 L94.24 23.98 L1.31 22.39" stroke="none" stroke-width="0" fill="#eeeeee"></path><path d="M0 0 C27.62 1.01, 51.36 2, 92.46 0 M0 0 C32.84 1.09, 67.07 -0.12, 92.46 0 M92.46 0 C93.11 6.23, 92.21 10.15, 92.46 24 M92.46 0 C93.19 5.78, 91.93 10.6, 92.46 24 M92.46 24 C68.19 24.12, 41.44 21.74, 0 24 M92.46 24 C72.34 24.86, 52.09 24.15, 0 24 M0 24 C1.76 16.26, 0.79 10.3, 0 0 M0 24 C-0.07 18.19, -0.58 12.92, 0 0" stroke="#000000" stroke-width="1" fill="none"></path></g><g transform="translate(2367.0891165271573 116.22139782420345) rotate(0 25.847557067871094 6.581206102243868)"><text x="25.847557067871094" y="0" font-family="Virgil, Segoe UI Emoji" font-size="10.529929763590173px" fill="#1e1e1e" text-anchor="middle" style="white-space: pre;" direction="ltr" dominant-baseline="text-before-edge">fwd primer</text></g><g stroke-linecap="round" transform="translate(2439.138177817897 111.27057581109943) rotate(0 18.382007865292962 12)"><path d="M0.59 0.68 L36.23 0.36 L35.85 23.94 L-0.62 23.45" stroke="none" stroke-width="0" fill="#eeeeee"></path><path d="M0 0 C13.2 -0.07, 26.31 -0.41, 36.76 0 M0 0 C11.69 0.01, 24.31 0.48, 36.76 0 M36.76 0 C36.4 4.69, 36.06 9.69, 36.76 24 M36.76 0 C37.11 8.2, 36.5 15.33, 36.76 24 M36.76 24 C24.51 24.36, 11.9 24.5, 0 24 M36.76 24 C25.35 23.81, 13.48 23.67, 0 24 M0 24 C-0.49 18.65, 0.66 13.34, 0 0 M0 24 C-0.32 19.16, 0.29 14.2, 0 0" stroke="#000000" stroke-width="1" fill="none"></path></g><g transform="translate(2447.2042906026236 116.68936970885557) rotate(0 10.315895080566406 6.581206102243868)"><text x="10.315895080566406" y="0" font-family="Virgil, Segoe UI Emoji" font-size="10.529929763590173px" fill="#1e1e1e" text-anchor="middle" style="white-space: pre;" direction="ltr" dominant-baseline="text-before-edge">ECC</text></g><g stroke-linecap="round" transform="translate(2475.408007303142 109.93449651888545) rotate(0 70.56366694592748 12)"><path d="M-0.55 -0.41 L139.23 1.3 L140.6 24.95 L0.09 23.12" stroke="none" stroke-width="0" fill="#eeeeee"></path><path d="M0 0 C45.27 0.23, 90.27 1.91, 141.13 0 M0 0 C36.69 -0.31, 74.92 -1.22, 141.13 0 M141.13 0 C141.08 4.98, 139.77 10.16, 141.13 24 M141.13 0 C141.82 6.17, 140.33 12.59, 141.13 24 M141.13 24 C109.6 26.88, 80.31 25.42, 0 24 M141.13 24 C107.02 23.55, 72.7 22.05, 0 24 M0 24 C1.46 14.43, 1.71 6.79, 0 0 M0 24 C0.74 17.04, 0.33 8.49, 0 0" stroke="#000000" stroke-width="1" fill="none"></path></g><g transform="translate(2518.3101523374485 115.35329041664158) rotate(0 27.661521911621094 6.581206102243868)"><text x="27.661521911621094" y="0" font-family="Virgil, Segoe UI Emoji" font-size="10.529929763590173px" fill="#1e1e1e" text-anchor="middle" style="white-space: pre;" direction="ltr" dominant-baseline="text-before-edge">information</text></g><g stroke-linecap="round" transform="translate(2653.5547438390113 111.15362300843071) rotate(0 46.22784355220597 12)"><path d="M-0.63 -0.21 L92.96 1.89 L93.18 23.77 L-1.97 23.06" stroke="none" stroke-width="0" fill="#eeeeee"></path><path d="M0 0 C36.24 1.36, 71.12 0.87, 92.46 0 M0 0 C20.18 0.6, 39.74 1.35, 92.46 0 M92.46 0 C92.75 7.66, 92.77 13.43, 92.46 24 M92.46 0 C93.13 7.24, 91.67 14.95, 92.46 24 M92.46 24 C67.39 23.34, 43.24 24.61, 0 24 M92.46 24 C70.9 24.03, 51.32 22.83, 0 24 M0 24 C0.95 14.94, -0.81 7.65, 0 0 M0 24 C-1.03 18.73, 0.36 14.56, 0 0" stroke="#000000" stroke-width="1" fill="none"></path></g><g transform="translate(2674.797319752057 116.57241690618685) rotate(0 24.985267639160156 6.581206102243868)"><text x="24.985267639160156" y="0" font-family="Virgil, Segoe UI Emoji" font-size="10.529929763590173px" fill="#1e1e1e" text-anchor="middle" style="white-space: pre;" direction="ltr" dominant-baseline="text-before-edge">rev primer</text></g><g stroke-linecap="round" transform="translate(2616.3489705844627 111.15355159777414) rotate(0 18.382007865292962 12)"><path d="M0.36 -0.12 L35.78 -0.47 L36.33 23.23 L0.2 23.9" stroke="none" stroke-width="0" fill="#eeeeee"></path><path d="M0 0 C12.39 -0.52, 25.89 0.27, 36.76 0 M0 0 C11.06 -0.59, 22.08 -0.02, 36.76 0 M36.76 0 C36.84 9.13, 37.17 17.83, 36.76 24 M36.76 0 C36.51 7.13, 36.35 14.09, 36.76 24 M36.76 24 C25.16 23.38, 14.14 23.34, 0 24 M36.76 24 C22.55 23.8, 8.25 24.16, 0 24 M0 24 C-0.9 19.61, 0.26 12.78, 0 0 M0 24 C-0.22 17.57, 0.06 11.72, 0 0" stroke="#000000" stroke-width="1" fill="none"></path></g><g transform="translate(2624.4150833691892 116.57234549553027) rotate(0 10.315895080566406 6.581206102243868)"><text x="10.315895080566406" y="0" font-family="Virgil, Segoe UI Emoji" font-size="10.529929763590173px" fill="#1e1e1e" text-anchor="middle" style="white-space: pre;" direction="ltr" dominant-baseline="text-before-edge">ECC</text></g><g stroke-linecap="round" transform="translate(2347.66776016435 150.14630935216633) rotate(0 46.22784355220597 12)"><path d="M0.4 1.74 L90.9 0.07 L93.27 23.57 L-1.01 24.86" stroke="none" stroke-width="0" fill="#eeeeee"></path><path d="M0 0 C32.43 -2.13, 66.15 0.27, 92.46 0 M0 0 C25.95 -0.73, 51.99 -1.25, 92.46 0 M92.46 0 C94.12 7.24, 92.62 11.69, 92.46 24 M92.46 0 C92.01 7.54, 92.55 17.46, 92.46 24 M92.46 24 C71.26 24.74, 51.41 22.83, 0 24 M92.46 24 C56.36 23.33, 21.4 23.37, 0 24 M0 24 C-0.1 18.5, 1.22 9.69, 0 0 M0 24 C0.19 16.91, 0.18 9.59, 0 0" stroke="#000000" stroke-width="1" fill="none"></path></g><g transform="translate(2368.0480466486847 155.56510324992246) rotate(0 25.847557067871094 6.581206102243868)"><text x="25.847557067871094" y="0" font-family="Virgil, Segoe UI Emoji" font-size="10.529929763590173px" fill="#1e1e1e" text-anchor="middle" style="white-space: pre;" direction="ltr" dominant-baseline="text-before-edge">fwd primer</text></g><g stroke-linecap="round" transform="translate(2440.0971079394244 150.61428123681867) rotate(0 18.382007865292962 12)"><path d="M0.41 -0.21 L36.26 0.43 L35.78 24.85 L-0.7 23.98" stroke="none" stroke-width="0" fill="#eeeeee"></path><path d="M0 0 C8.41 0.88, 18.12 -0.02, 36.76 0 M0 0 C11.37 0.26, 22.56 0.47, 36.76 0 M36.76 0 C37.3 8.16, 36.19 14.82, 36.76 24 M36.76 0 C36.42 4.95, 36.27 10.03, 36.76 24 M36.76 24 C23.58 24.57, 7.89 23.79, 0 24 M36.76 24 C25.7 24.35, 14.52 24.03, 0 24 M0 24 C-0.06 15.11, -0.38 5.28, 0 0 M0 24 C0.06 16.83, -0.43 8.81, 0 0" stroke="#000000" stroke-width="1" fill="none"></path></g><g transform="translate(2448.163220724151 156.0330751345748) rotate(0 10.315895080566406 6.581206102243868)"><text x="10.315895080566406" y="0" font-family="Virgil, Segoe UI Emoji" font-size="10.529929763590173px" fill="#1e1e1e" text-anchor="middle" style="white-space: pre;" direction="ltr" dominant-baseline="text-before-edge">ECC</text></g><g stroke-linecap="round" transform="translate(2476.3669374246697 149.2782019446047) rotate(0 70.56366694592771 12)"><path d="M-1.98 1.7 L139.73 -0.04 L142.22 22.52 L-0.41 24.25" stroke="none" stroke-width="0" fill="#eeeeee"></path><path d="M0 0 C56.38 0.36, 111.49 -0.41, 141.13 0 M0 0 C47.61 -1.08, 93.83 -0.59, 141.13 0 M141.13 0 C139.13 8.29, 142.04 15.32, 141.13 24 M141.13 0 C141.72 8.1, 140.76 15.09, 141.13 24 M141.13 24 C90.48 25.27, 39.88 23.94, 0 24 M141.13 24 C90.28 24.74, 37.77 24.07, 0 24 M0 24 C0.41 15.91, 0.27 6.89, 0 0 M0 24 C0.59 14.5, -0.32 5.86, 0 0" stroke="#000000" stroke-width="1" fill="none"></path></g><g transform="translate(2519.2690824589763 154.69699584236082) rotate(0 27.661521911621094 6.581206102243868)"><text x="27.661521911621094" y="0" font-family="Virgil, Segoe UI Emoji" font-size="10.529929763590173px" fill="#1e1e1e" text-anchor="middle" style="white-space: pre;" direction="ltr" dominant-baseline="text-before-edge">information</text></g><g stroke-linecap="round" transform="translate(2654.513673960539 150.49732843414972) rotate(0 46.22784355220597 12)"><path d="M1.09 -1.48 L92.05 0.25 L90.49 24.94 L0.21 24.19" stroke="none" stroke-width="0" fill="#eeeeee"></path><path d="M0 0 C30.63 -1.18, 61.41 0.55, 92.46 0 M0 0 C28.57 -1.07, 55.65 -1.42, 92.46 0 M92.46 0 C92.5 5.17, 92.9 15.94, 92.46 24 M92.46 0 C93.02 8.85, 92.24 19.21, 92.46 24 M92.46 24 C59 24.02, 22.93 26.04, 0 24 M92.46 24 C58.98 23.72, 24.57 24.19, 0 24 M0 24 C1.71 14.45, 0.04 8.81, 0 0 M0 24 C-0.87 18.16, -0.58 10.6, 0 0" stroke="#000000" stroke-width="1" fill="none"></path></g><g transform="translate(2675.7562498735847 155.91612233190585) rotate(0 24.985267639160156 6.581206102243868)"><text x="24.985267639160156" y="0" font-family="Virgil, Segoe UI Emoji" font-size="10.529929763590173px" fill="#1e1e1e" text-anchor="middle" style="white-space: pre;" direction="ltr" dominant-baseline="text-before-edge">rev primer</text></g><g stroke-linecap="round" transform="translate(2617.30790070599 150.49725702349292) rotate(0 18.382007865292962 12)"><path d="M-0.98 0.47 L36.87 0.1 L37.69 23.21 L0.34 23.87" stroke="none" stroke-width="0" fill="#eeeeee"></path><path d="M0 0 C8.65 -1.03, 17.74 0.44, 36.76 0 M0 0 C8.88 0.43, 17.44 0.15, 36.76 0 M36.76 0 C37.78 4.7, 37.67 10.25, 36.76 24 M36.76 0 C37.12 5.44, 36.79 11.15, 36.76 24 M36.76 24 C26.56 24.47, 15 24.83, 0 24 M36.76 24 C27 24.08, 17 24.47, 0 24 M0 24 C-0.22 18.16, 0.43 12.34, 0 0 M0 24 C0.36 14.39, -0.02 5.58, 0 0" stroke="#000000" stroke-width="1" fill="none"></path></g><g transform="translate(2625.3740134907166 155.91605092124905) rotate(0 10.315895080566406 6.581206102243868)"><text x="10.315895080566406" y="0" font-family="Virgil, Segoe UI Emoji" font-size="10.529929763590173px" fill="#1e1e1e" text-anchor="middle" style="white-space: pre;" direction="ltr" dominant-baseline="text-before-edge">ECC</text></g><g stroke-linecap="round" transform="translate(2352.1122046087953 193.47960877707942) rotate(0 46.22784355220597 12)"><path d="M0.69 -1.56 L92.39 0.24 L90.53 25.33 L-1.13 23.27" stroke="none" stroke-width="0" fill="#eeeeee"></path><path d="M0 0 C27.03 0.29, 51.62 1.66, 92.46 0 M0 0 C20.47 -0.26, 40.51 0.48, 92.46 0 M92.46 0 C91.48 8.11, 91.91 14.12, 92.46 24 M92.46 0 C92.71 5.85, 92.61 12.44, 92.46 24 M92.46 24 C60.94 23.91, 34.75 23.46, 0 24 M92.46 24 C70.59 24.17, 48.38 23.42, 0 24 M0 24 C-1.47 16.71, 0.85 13.73, 0 0 M0 24 C0.94 15.43, 0.96 6.45, 0 0" stroke="#000000" stroke-width="1" fill="none"></path></g><g transform="translate(2372.49249109313 198.89840267483555) rotate(0 25.847557067871094 6.581206102243868)"><text x="25.847557067871094" y="0" font-family="Virgil, Segoe UI Emoji" font-size="10.529929763590173px" fill="#1e1e1e" text-anchor="middle" style="white-space: pre;" direction="ltr" dominant-baseline="text-before-edge">fwd primer</text></g><g stroke-linecap="round" transform="translate(2444.5415523838697 193.9475806617313) rotate(0 18.382007865292962 12)"><path d="M-0.96 0.66 L36.2 -0.37 L35.97 23.53 L-0.95 23.59" stroke="none" stroke-width="0" fill="#eeeeee"></path><path d="M0 0 C9.84 -0.23, 21.17 -0.37, 36.76 0 M0 0 C10.06 -0.52, 20.14 -0.27, 36.76 0 M36.76 0 C36.44 8.75, 36.93 15.79, 36.76 24 M36.76 0 C36.87 6.2, 36.63 11.05, 36.76 24 M36.76 24 C24.85 24.35, 13.88 24, 0 24 M36.76 24 C23.68 23.81, 10.93 23.56, 0 24 M0 24 C0.79 18.86, 0.65 14.47, 0 0 M0 24 C0.05 14.88, -0.14 6.61, 0 0" stroke="#000000" stroke-width="1" fill="none"></path></g><g transform="translate(2452.607665168596 199.36637455948744) rotate(0 10.315895080566406 6.581206102243868)"><text x="10.315895080566406" y="0" font-family="Virgil, Segoe UI Emoji" font-size="10.529929763590173px" fill="#1e1e1e" text-anchor="middle" style="white-space: pre;" direction="ltr" dominant-baseline="text-before-edge">ECC</text></g><g stroke-linecap="round" transform="translate(2480.811381869115 192.61150136951733) rotate(0 70.56366694592771 12)"><path d="M-1.58 -0.95 L139.24 -0.82 L140.68 23.7 L1.52 24.3" stroke="none" stroke-width="0" fill="#eeeeee"></path><path d="M0 0 C40.02 -1.55, 82.08 0.67, 141.13 0 M0 0 C30.27 0.37, 59.49 0.23, 141.13 0 M141.13 0 C139.96 9.19, 140.21 19.06, 141.13 24 M141.13 0 C141.14 10.36, 140.91 18.18, 141.13 24 M141.13 24 C94.45 23.45, 45.31 22.75, 0 24 M141.13 24 C101.79 23.31, 64.61 23.75, 0 24 M0 24 C1.1 18.52, 1.58 9.76, 0 0 M0 24 C-0.96 19.34, -0.56 12.98, 0 0" stroke="#000000" stroke-width="1" fill="none"></path></g><g transform="translate(2523.7135269034216 198.03029526727346) rotate(0 27.661521911621094 6.581206102243868)"><text x="27.661521911621094" y="0" font-family="Virgil, Segoe UI Emoji" font-size="10.529929763590173px" fill="#1e1e1e" text-anchor="middle" style="white-space: pre;" direction="ltr" dominant-baseline="text-before-edge">information</text></g><g stroke-linecap="round" transform="translate(2658.9581184049844 193.83062785906282) rotate(0 46.22784355220597 12)"><path d="M-0.44 -0.3 L93.98 0.3 L91.33 24.33 L-0.5 24.91" stroke="none" stroke-width="0" fill="#eeeeee"></path><path d="M0 0 C17.09 0.54, 36.92 0.43, 92.46 0 M0 0 C27.06 0.47, 52.41 -0.32, 92.46 0 M92.46 0 C94.18 6.57, 90.63 14.26, 92.46 24 M92.46 0 C92.79 9.17, 92.44 19.46, 92.46 24 M92.46 24 C66.88 22.2, 40.85 21.78, 0 24 M92.46 24 C61.2 25.47, 30.7 25.41, 0 24 M0 24 C-1.77 14.35, 0.03 2.92, 0 0 M0 24 C-0.66 14.73, -0.81 6, 0 0" stroke="#000000" stroke-width="1" fill="none"></path></g><g transform="translate(2680.20069431803 199.24942175681895) rotate(0 24.985267639160156 6.581206102243868)"><text x="24.985267639160156" y="0" font-family="Virgil, Segoe UI Emoji" font-size="10.529929763590173px" fill="#1e1e1e" text-anchor="middle" style="white-space: pre;" direction="ltr" dominant-baseline="text-before-edge">rev primer</text></g><g stroke-linecap="round" transform="translate(2621.7523451504353 193.83055644840556) rotate(0 18.382007865292962 12)"><path d="M-0.56 0.16 L36.51 0.45 L36.4 24.48 L-0.53 23.64" stroke="none" stroke-width="0" fill="#eeeeee"></path><path d="M0 0 C12.1 -0.54, 24.23 0.83, 36.76 0 M0 0 C11.68 -0.13, 23.53 0.57, 36.76 0 M36.76 0 C37.62 6.45, 36.03 13.59, 36.76 24 M36.76 0 C36.62 6.27, 36.45 12.69, 36.76 24 M36.76 24 C28.35 24.38, 19.99 23.96, 0 24 M36.76 24 C23.66 24.55, 9.74 23.73, 0 24 M0 24 C0.65 16.31, -0.38 8.97, 0 0 M0 24 C0 17.86, 0.49 11.95, 0 0" stroke="#000000" stroke-width="1" fill="none"></path></g><g transform="translate(2629.818457935162 199.2493503461617) rotate(0 10.315895080566406 6.581206102243868)"><text x="10.315895080566406" y="0" font-family="Virgil, Segoe UI Emoji" font-size="10.529929763590173px" fill="#1e1e1e" text-anchor="middle" style="white-space: pre;" direction="ltr" dominant-baseline="text-before-edge">ECC</text></g><g stroke-linecap="round" transform="translate(1862.7567663408586 476.0313704923972) rotate(0 180.37898073116958 234.04714449847177)"><path d="M90.19 0 C132.32 -1.42, 175.68 0.5, 270.57 0 C331.83 2.64, 363.88 31.2, 360.76 90.19 C363.44 196.8, 361.32 302.18, 360.76 377.9 C364.33 435.88, 331.78 468.07, 270.57 468.09 C210.5 468.05, 156.44 470.38, 90.19 468.09 C31.78 470.82, 3.13 435.04, 0 377.9 C2.27 277.79, 1.34 176, 0 90.19 C2.82 31.13, 32.9 -2.32, 90.19 0" stroke="none" stroke-width="0" fill="#eeeeee"></path><path d="M90.19 0 C142.67 1.04, 196.53 -1.43, 270.57 0 M90.19 0 C148.2 -0.1, 206.3 0.98, 270.57 0 M270.57 0 C331.33 -0.55, 359.85 31.61, 360.76 90.19 M270.57 0 C328.46 -1.25, 360.89 28.63, 360.76 90.19 M360.76 90.19 C361.18 151.31, 361.02 212.74, 360.76 377.9 M360.76 90.19 C360.12 173.23, 360.57 255.97, 360.76 377.9 M360.76 377.9 C360.89 436.4, 329.21 466.9, 270.57 468.09 M360.76 377.9 C361.02 438.02, 331.37 469.22, 270.57 468.09 M270.57 468.09 C199.89 467.43, 131.57 467.16, 90.19 468.09 M270.57 468.09 C225.35 469.15, 179.69 469.4, 90.19 468.09 M90.19 468.09 C29.09 467.12, 0.6 437.47, 0 377.9 M90.19 468.09 C29.66 468.42, 1.92 435.76, 0 377.9 M0 377.9 C1.35 274.21, 0.1 170.72, 0 90.19 M0 377.9 C-1.77 314.44, -0.81 252.15, 0 90.19 M0 90.19 C1.51 28.32, 29.29 0.42, 90.19 0 M0 90.19 C1.96 30.17, 30.13 -1.5, 90.19 0" stroke="#000000" stroke-width="1" fill="none"></path></g><g stroke-linecap="round" transform="translate(1881.6758823670643 493.64536425310234) rotate(0 31.840681028967992 12.533034022040624)"><path d="M-0.98 -0.97 L64.28 -0.56 L63.33 25.35 L1.67 23.09" stroke="none" stroke-width="0" fill="#868e96"></path><path d="M0 0 C17.64 -1.74, 38.93 -0.28, 63.68 0 M0 0 C16.7 0.82, 34.05 0.2, 63.68 0 M63.68 0 C62.79 6.49, 62.62 11.05, 63.68 25.07 M63.68 0 C63.39 7.46, 63.16 13.79, 63.68 25.07 M63.68 25.07 C45.89 24.18, 27.28 24.69, 0 25.07 M63.68 25.07 C49.9 24.68, 36.18 25.18, 0 25.07 M0 25.07 C-1.52 15.4, -0.59 5.5, 0 0 M0 25.07 C-0.02 19.13, -0.33 13.07, 0 0" stroke="#000000" stroke-width="1" fill="none"></path></g><g stroke-linecap="round" transform="translate(1983.0240926209622 492.60464504722063) rotate(0 110.55069439860495 149.91286788206048)"><path d="M55.28 0 C79.02 3.48, 103.61 1.98, 165.83 0 C205.25 2.35, 221.22 18.6, 221.1 55.28 C222.18 108.21, 219.69 165.42, 221.1 244.55 C221.57 282, 201.77 296.24, 165.83 299.83 C132.01 304.27, 97.89 298.56, 55.28 299.83 C20.18 296.38, -2.92 279.45, 0 244.55 C5.84 187.29, 5.85 125.59, 0 55.28 C-1.92 15.36, 20.73 -1.83, 55.28 0" stroke="none" stroke-width="0" fill="#ced4da"></path><path d="M55.28 0 C94.84 0.84, 132.8 0.5, 165.83 0 M55.28 0 C80.6 -0.66, 104.84 0.39, 165.83 0 M165.83 0 C200.74 -1.09, 221.22 17.17, 221.1 55.28 M165.83 0 C200.71 -0.51, 222.3 19.8, 221.1 55.28 M221.1 55.28 C221.78 103.95, 223.85 151.12, 221.1 244.55 M221.1 55.28 C220.8 122.6, 220 190.96, 221.1 244.55 M221.1 244.55 C221.33 281.39, 203.27 300.81, 165.83 299.83 M221.1 244.55 C223.03 282.33, 201.89 298.19, 165.83 299.83 M165.83 299.83 C131.91 300.74, 100.72 299.89, 55.28 299.83 M165.83 299.83 C128.19 300.01, 91.83 300.22, 55.28 299.83 M55.28 299.83 C18.07 300.11, 1.67 279.42, 0 244.55 M55.28 299.83 C19.84 299.59, -1.2 283.13, 0 244.55 M0 244.55 C-1.46 185.15, -0.19 122.32, 0 55.28 M0 244.55 C-1.08 194.87, -2.22 147.14, 0 55.28 M0 55.28 C1.71 18.52, 18.48 -1.3, 55.28 0 M0 55.28 C-1.39 19.64, 16.99 -0.68, 55.28 0" stroke="#000000" stroke-width="1" fill="none"></path></g><g stroke-linecap="round"><g transform="translate(1949.3241248671602 506.55604128037794) rotate(0 20.372201153164497 -0.602114550367105)"><path d="M0.02 -0.19 C6.86 -0.48, 33.9 -1.47, 40.67 -1.61 M-0.64 -0.77 C6.16 -1.01, 33.39 -0.92, 40.2 -1.12" stroke="#000000" stroke-width="1" fill="none"></path></g><g transform="translate(1949.3241248671602 506.55604128037794) rotate(0 20.372201153164497 -0.602114550367105)"><path d="M21.13 6.07 C25.16 4.27, 29.17 2.58, 40.2 -1.12 M21.13 6.07 C27.28 4.07, 33.41 1.01, 40.2 -1.12" stroke="#000000" stroke-width="1" fill="none"></path></g><g transform="translate(1949.3241248671602 506.55604128037794) rotate(0 20.372201153164497 -0.602114550367105)"><path d="M20.97 -7.87 C25.06 -6.45, 29.1 -4.93, 40.2 -1.12 M20.97 -7.87 C27.19 -5.2, 33.38 -3.59, 40.2 -1.12" stroke="#000000" stroke-width="1" fill="none"></path></g></g><mask></mask><g stroke-linecap="round" transform="translate(1898.1779556541655 807.8292622850943) rotate(0 31.840681028967992 12.533034022040624)"><path d="M1.67 -1.98 L64.91 -0.2 L62.64 26.57 L0.43 24.91" stroke="none" stroke-width="0" fill="#868e96"></path><path d="M0 0 C17.84 -0.25, 39.34 0.72, 63.68 0 M0 0 C16.39 -1.04, 34.79 -1.12, 63.68 0 M63.68 0 C64.82 4.53, 64.62 9.45, 63.68 25.07 M63.68 0 C62.89 7.8, 63.49 15.18, 63.68 25.07 M63.68 25.07 C42.97 24.82, 24.64 25.18, 0 25.07 M63.68 25.07 C41.11 24.61, 19.2 25.08, 0 25.07 M0 25.07 C0.89 18.18, 0.84 10.42, 0 0 M0 25.07 C0.42 15.75, -0.05 7.13, 0 0" stroke="#000000" stroke-width="1" fill="none"></path></g><g stroke-linecap="round" transform="translate(1999.5261659080566 808.3280124521857) rotate(0 84.00520101259644 13.549225969773602)"><path d="M6.77 0 C58.13 -1.64, 108.92 -4.45, 161.24 0 C163.48 3.57, 165.85 3.34, 168.01 6.77 C167.43 8.4, 168.56 14.09, 168.01 20.32 C171.12 26.56, 168.48 30.23, 161.24 27.1 C124.79 22.49, 94.48 21.25, 6.77 27.1 C0.64 29.92, 1.06 27.68, 0 20.32 C1.69 15.9, 0.34 15.51, 0 6.77 C-3.56 -0.14, 4.07 -0.81, 6.77 0" stroke="none" stroke-width="0" fill="#ced4da"></path><path d="M6.77 0 C51.74 0.89, 94.75 -0.65, 161.24 0 M6.77 0 C65.1 0.21, 122.45 0.62, 161.24 0 M161.24 0 C166.79 1.2, 167.16 3.25, 168.01 6.77 M161.24 0 C164.25 -0.3, 167.97 4.34, 168.01 6.77 M168.01 6.77 C169.16 9.86, 166.98 11.76, 168.01 20.32 M168.01 6.77 C168.23 10.36, 168.59 13.55, 168.01 20.32 M168.01 20.32 C167.32 23.42, 165.71 26.61, 161.24 27.1 M168.01 20.32 C167.65 23.72, 167 27.99, 161.24 27.1 M161.24 27.1 C114.3 25.82, 63.97 27.39, 6.77 27.1 M161.24 27.1 C120.06 26.33, 77.83 27.22, 6.77 27.1 M6.77 27.1 C1.21 28.6, 0.43 24.68, 0 20.32 M6.77 27.1 C3.56 25.25, 1.64 24.45, 0 20.32 M0 20.32 C1.04 17.68, -1.13 12.47, 0 6.77 M0 20.32 C-0.1 15.53, -0.53 11.98, 0 6.77 M0 6.77 C-1.25 1.66, 0.35 -0.5, 6.77 0 M0 6.77 C-0.97 2.98, 3.94 2, 6.77 0" stroke="#000000" stroke-width="1" fill="none"></path></g><g stroke-linecap="round"><g transform="translate(1963.9844531151834 822.0365574446282) rotate(0 16.936463672390573 0.004224742966357553)"><path d="M0.17 -0.15 C5.79 -0.11, 28.09 0.46, 33.62 0.43 M-0.4 -0.7 C5.13 -0.83, 27.26 -0.46, 33.06 -0.31" stroke="#000000" stroke-width="1" fill="none"></path></g><g transform="translate(1963.9844531151834 822.0365574446282) rotate(0 16.936463672390573 0.004224742966357553)"><path d="M17.04 5.17 C21.33 3.2, 26.75 1.22, 33.06 -0.31 M17.04 5.17 C20.61 3.78, 25.13 2.78, 33.06 -0.31" stroke="#000000" stroke-width="1" fill="none"></path></g><g transform="translate(1963.9844531151834 822.0365574446282) rotate(0 16.936463672390573 0.004224742966357553)"><path d="M17.26 -6.42 C21.51 -5.1, 26.87 -3.81, 33.06 -0.31 M17.26 -6.42 C20.78 -4.96, 25.25 -3.12, 33.06 -0.31" stroke="#000000" stroke-width="1" fill="none"></path></g></g><mask></mask><g stroke-linecap="round" transform="translate(1899.6683705108321 878.1012450170253) rotate(0 31.840681028967992 12.533034022040624)"><path d="M0.43 -0.16 L64.82 -1.61 L65.1 24.72 L-0.59 24.22" stroke="none" stroke-width="0" fill="#868e96"></path><path d="M0 0 C22.66 -1.65, 41.15 0.41, 63.68 0 M0 0 C15.64 0.74, 29.82 0.64, 63.68 0 M63.68 0 C65.46 4.3, 64.85 11.37, 63.68 25.07 M63.68 0 C62.95 8.9, 63.81 18.99, 63.68 25.07 M63.68 25.07 C43.51 24.91, 20.3 25.56, 0 25.07 M63.68 25.07 C46.66 25.14, 28.67 25.12, 0 25.07 M0 25.07 C-1.12 18.64, -0.71 10.66, 0 0 M0 25.07 C0.41 17.09, -0.73 10.06, 0 0" stroke="#000000" stroke-width="1" fill="none"></path></g><g stroke-linecap="round" transform="translate(2001.0165807647368 877.8302604976291) rotate(0 84.00520101259644 13.549225969773602)"><path d="M6.77 0 C39.64 -1.67, 76.8 -2.29, 161.24 0 C166.35 -0.91, 164.42 3.03, 168.01 6.77 C170.07 12.52, 166.2 15.21, 168.01 20.32 C164.56 21.92, 163.81 27.39, 161.24 27.1 C129.62 32.12, 93.57 27.36, 6.77 27.1 C-0.81 29.4, -1.83 25.16, 0 20.32 C1.47 14.84, -2.16 9.79, 0 6.77 C2.98 0.5, 0.54 0.1, 6.77 0" stroke="none" stroke-width="0" fill="#ced4da"></path><path d="M6.77 0 C44.98 1.61, 84.1 -0.21, 161.24 0 M6.77 0 C49.24 -0.43, 91.9 -1.05, 161.24 0 M161.24 0 C165.72 1.81, 166.43 3.46, 168.01 6.77 M161.24 0 C165.31 1.81, 168.16 0.38, 168.01 6.77 M168.01 6.77 C167.92 10.23, 168.59 14.03, 168.01 20.32 M168.01 6.77 C167.95 11.23, 167.86 15.67, 168.01 20.32 M168.01 20.32 C169.1 25.61, 165.99 27.82, 161.24 27.1 M168.01 20.32 C167.56 26.23, 164.63 25.98, 161.24 27.1 M161.24 27.1 C110.58 28.49, 57.37 28.06, 6.77 27.1 M161.24 27.1 C116.66 28.18, 72.23 27.45, 6.77 27.1 M6.77 27.1 C3.68 26.76, -0.59 24, 0 20.32 M6.77 27.1 C4.49 28.78, 1.74 22.83, 0 20.32 M0 20.32 C0.03 16.82, -0.91 12.43, 0 6.77 M0 20.32 C-0.56 15.37, -0.2 10.98, 0 6.77 M0 6.77 C1.47 3.99, 2.89 1.43, 6.77 0 M0 6.77 C1.5 2.33, 2.37 -0.21, 6.77 0" stroke="#000000" stroke-width="1" fill="none"></path></g><g stroke-linecap="round"><g transform="translate(2003.0488509034876 903.8268811398284) rotate(0 -0.5150281779428951 0.0945903290107708)"><path d="M0.02 -0.22 C-0.14 -0.17, -1.19 0.01, -1.33 0.11 M-0.4 0.43 C-0.43 0.55, -0.6 0.62, -0.69 0.52" stroke="#000000" stroke-width="1" fill="none"></path></g><g transform="translate(2003.0488509034876 903.8268811398284) rotate(0 -0.5150281779428951 0.0945903290107708)"><path d="M-0.17 0.57 C-0.29 0.55, -0.39 0.56, -0.69 0.52 M-0.17 0.57 C-0.36 0.55, -0.55 0.54, -0.69 0.52" stroke="#000000" stroke-width="1" fill="none"></path></g><g transform="translate(2003.0488509034876 903.8268811398284) rotate(0 -0.5150281779428951 0.0945903290107708)"><path d="M-0.33 0.89 C-0.41 0.8, -0.48 0.75, -0.69 0.52 M-0.33 0.89 C-0.46 0.76, -0.59 0.63, -0.69 0.52" stroke="#000000" stroke-width="1" fill="none"></path></g></g><mask></mask><g stroke-linecap="round"><g transform="translate(1929.4630443780693 876.1459266581919) rotate(0 -0.285418291222868 -20.067251186131102)"><path d="M-0.47 -0.12 C-0.52 -6.7, -0.23 -33.18, -0.28 -39.81" stroke="#000000" stroke-width="1.5" fill="none" stroke-dasharray="1.5 7"></path></g></g><mask></mask><g stroke-linecap="round"><g transform="translate(2079.7509009960554 839.3620749657503) rotate(0 -0.7315493370210788 17.06760645772158)"><path d="M0.29 0.33 C0.08 6.08, -1.35 28.79, -1.7 34.41" stroke="#000000" stroke-width="1.5" fill="none" stroke-dasharray="1.5 7"></path></g></g><mask></mask><g transform="translate(1911.2555010054953 496.8026220673173) rotate(0 2.0832977294921875 10.391418267598738)"><text x="2.0832977294921875" y="0" font-family="Virgil, Segoe UI Emoji" font-size="15.394693729775836px" fill="#000000" text-anchor="middle" style="white-space: pre;" direction="ltr" dominant-baseline="text-before-edge">1</text></g><g transform="translate(1917.7955009681764 879.882618959557) rotate(0 11.846366882324219 10.391418267598738)"><text x="11.846366882324219" y="0" font-family="Virgil, Segoe UI Emoji" font-size="15.394693729775836px" fill="#000000" text-anchor="middle" style="white-space: pre;" direction="ltr" dominant-baseline="text-before-edge">z/y</text></g><g transform="translate(184.01356164159245 334.722620646158) rotate(0 140.68983459472656 12.5)"><text x="0" y="0" font-family="Virgil, Segoe UI Emoji" font-size="20px" fill="#1e1e1e" text-anchor="start" style="white-space: pre;" direction="ltr" dominant-baseline="text-before-edge">foo.txt data representation</text></g><g stroke-linecap="round" transform="translate(163.44205459639159 378.1512269519617) rotate(0 137.14287894112732 71.99999128069192)"><path d="M32 0 C85.27 1.59, 141.48 1.04, 242.29 0 M32 0 C111.3 -0.07, 189.87 -0.51, 242.29 0 M242.29 0 C263.08 -1.35, 275.56 10.9, 274.29 32 M242.29 0 C265.47 -0.78, 272.97 12.36, 274.29 32 M274.29 32 C276.18 57.34, 276.26 79.26, 274.29 112 M274.29 32 C273.99 51.95, 273.71 72.29, 274.29 112 M274.29 112 C274.71 132.04, 262.2 142.51, 242.29 144 M274.29 112 C272.29 135.45, 264.37 145.17, 242.29 144 M242.29 144 C159.63 142.19, 77.65 140.83, 32 144 M242.29 144 C193.42 143.31, 146.24 143.03, 32 144 M32 144 C10.5 145.18, -0.93 131.6, 0 112 M32 144 C9.34 145.61, -1.61 134.79, 0 112 M0 112 C-0.54 84.63, -1.09 56.08, 0 32 M0 112 C0.27 89.54, 0.81 68.63, 0 32 M0 32 C1.97 10.45, 8.94 0.8, 32 0 M0 32 C2.27 10.76, 10.87 0.28, 32 0" stroke="#1e1e1e" stroke-width="2" fill="none"></path></g><g transform="translate(205.7277776014139 435.2940840948186) rotate(0 86.30989837646484 25)"><text x="0" y="0" font-family="Virgil, Segoe UI Emoji" font-size="20px" fill="#1e1e1e" text-anchor="start" style="white-space: pre;" direction="ltr" dominant-baseline="text-before-edge">file name: foo.txt</text><text x="0" y="25" font-family="Virgil, Segoe UI Emoji" font-size="20px" fill="#1e1e1e" text-anchor="start" style="white-space: pre;" direction="ltr" dominant-baseline="text-before-edge"></text></g><g transform="translate(1824.5231586272484 310.30705208386144) rotate(0 140.68983459472656 12.5)"><text x="0" y="0" font-family="Virgil, Segoe UI Emoji" font-size="20px" fill="#1e1e1e" text-anchor="start" style="white-space: pre;" direction="ltr" dominant-baseline="text-before-edge">foo.txt data representation</text></g><g stroke-linecap="round" transform="translate(1803.9516515820474 354.5356461826336) rotate(0 216.98703716327645 314.2805369984019)"><path d="M32 0 C121.06 1.1, 210.79 0.52, 401.97 0 M32 0 C140.14 0.77, 249.29 1.11, 401.97 0 M401.97 0 C422.71 0.78, 433.81 10.43, 433.97 32 M401.97 0 C424.74 1.29, 435.75 11.87, 433.97 32 M433.97 32 C432.61 255.81, 433.41 480, 433.97 596.56 M433.97 32 C433.54 193.8, 433.56 355.5, 433.97 596.56 M433.97 596.56 C432.47 619.68, 421.46 627.37, 401.97 628.56 M433.97 596.56 C435.26 616.66, 424.47 626.55, 401.97 628.56 M401.97 628.56 C272.36 628.25, 142.63 626.69, 32 628.56 M401.97 628.56 C303.2 626.69, 204.13 626.69, 32 628.56 M32 628.56 C10.8 626.67, 0.68 617.85, 0 596.56 M32 628.56 C11.3 626.87, 0.5 619.49, 0 596.56 M0 596.56 C1.43 456.26, 1.53 316.64, 0 32 M0 596.56 C0.68 449.72, 1.15 303.54, 0 32 M0 32 C0.39 11.86, 11.32 -1.62, 32 0 M0 32 C1.94 10.65, 11.52 -1.6, 32 0" stroke="#1e1e1e" stroke-width="2" fill="none"></path></g><g transform="translate(1846.2373745870696 410.87851553252176) rotate(0 86.30989837646484 37.5)"><text x="0" y="0" font-family="Virgil, Segoe UI Emoji" font-size="20px" fill="#1e1e1e" text-anchor="start" style="white-space: pre;" direction="ltr" dominant-baseline="text-before-edge">file name: foo.txt</text><text x="0" y="25" font-family="Virgil, Segoe UI Emoji" font-size="20px" fill="#1e1e1e" text-anchor="start" style="white-space: pre;" direction="ltr" dominant-baseline="text-before-edge">sequences: </text><text x="0" y="50" font-family="Virgil, Segoe UI Emoji" font-size="20px" fill="#1e1e1e" text-anchor="start" style="white-space: pre;" direction="ltr" dominant-baseline="text-before-edge"></text></g><g transform="translate(743.0992375623514 105.27478281656886) rotate(0 64.5499267578125 12.5)"><text x="0" y="0" font-family="Virgil, Segoe UI Emoji" font-size="20px" fill="#1e1e1e" text-anchor="start" style="white-space: pre;" direction="ltr" dominant-baseline="text-before-edge">z = (n/1.585)</text></g><g transform="translate(2002.6055390260863 517.450233366995) rotate(0 94.9198989868164 100)"><text x="0" y="0" font-family="Virgil, Segoe UI Emoji" font-size="20px" fill="#1e1e1e" text-anchor="start" style="white-space: pre;" direction="ltr" dominant-baseline="text-before-edge">{len_bases: 25,</text><text x="0" y="25" font-family="Virgil, Segoe UI Emoji" font-size="20px" fill="#1e1e1e" text-anchor="start" style="white-space: pre;" direction="ltr" dominant-baseline="text-before-edge">starting_base: "G",</text><text x="0" y="50" font-family="Virgil, Segoe UI Emoji" font-size="20px" fill="#1e1e1e" text-anchor="start" style="white-space: pre;" direction="ltr" dominant-baseline="text-before-edge">primer: "ATCGT,"</text><text x="0" y="75" font-family="Virgil, Segoe UI Emoji" font-size="20px" fill="#1e1e1e" text-anchor="start" style="white-space: pre;" direction="ltr" dominant-baseline="text-before-edge">checksum: 45,</text><text x="0" y="100" font-family="Virgil, Segoe UI Emoji" font-size="20px" fill="#1e1e1e" text-anchor="start" style="white-space: pre;" direction="ltr" dominant-baseline="text-before-edge">A-&gt;G: 10,</text><text x="0" y="125" font-family="Virgil, Segoe UI Emoji" font-size="20px" fill="#1e1e1e" text-anchor="start" style="white-space: pre;" direction="ltr" dominant-baseline="text-before-edge">A-&gt;C: 4,</text><text x="0" y="150" font-family="Virgil, Segoe UI Emoji" font-size="20px" fill="#1e1e1e" text-anchor="start" style="white-space: pre;" direction="ltr" dominant-baseline="text-before-edge">A-&gt;T: 3,</text><text x="0" y="175" font-family="Virgil, Segoe UI Emoji" font-size="20px" fill="#1e1e1e" text-anchor="start" style="white-space: pre;" direction="ltr" dominant-baseline="text-before-edge">other: ...}</text></g><g stroke-linecap="round"><g transform="translate(440.02376301401307 457.3045035026623) rotate(0 679.200012207031 4.559895822299268)"><path d="M0.47 -0.6 C226.95 0.97, 1133.33 6.89, 1359.52 8.67 M-0.74 1.7 C225.62 3.5, 1132.36 8.89, 1359.16 9.97" stroke="#1e1e1e" stroke-width="2" fill="none"></path></g><g transform="translate(440.02376301401307 457.3045035026623) rotate(0 679.200012207031 4.559895822299268)"><path d="M1335.62 18.39 C1342.99 17.19, 1351.56 11.01, 1359.16 9.97 M1335.62 18.39 C1344.82 16.07, 1352.59 11.55, 1359.16 9.97" stroke="#1e1e1e" stroke-width="2" fill="none"></path></g><g transform="translate(440.02376301401307 457.3045035026623) rotate(0 679.200012207031 4.559895822299268)"><path d="M1335.71 1.29 C1342.94 6.13, 1351.48 5.99, 1359.16 9.97 M1335.71 1.29 C1344.83 5.43, 1352.57 7.38, 1359.16 9.97" stroke="#1e1e1e" stroke-width="2" fill="none"></path></g></g><mask></mask></svg>