<svg version="1.1" xmlns="http://www.w3.org/2000/svg" viewBox="0 0 596.0192812883765 502.260272018421" width="596.0192812883765" height="502.260272018421">
  <!-- svg-source:excalidraw -->
  
  <defs>
    <style class="style-fonts">
      @font-face {
        font-family: "Virgil";
        src: url("https://excalidraw.com/Virgil.woff2");
      }
      @font-face {
        font-family: "Cascadia";
        src: url("https://excalidraw.com/Cascadia.woff2");
      }
      @font-face {
        font-family: "Assistant";
        src: url("https://excalidraw.com/Assistant-Regular.woff2");
      }
    </style>
    
  </defs>
  <rect x="0" y="0" width="596.0192812883765" height="502.260272018421" fill="#ffffff"></rect><g stroke-linecap="round" transform="translate(93.5556030273442 83.92654392714621) rotate(0 52.48356698889097 49.59985403343575)"><path d="M28.37 4.95 C35.43 0.46, 46.01 -1.43, 54.66 -0.86 C63.32 -0.29, 73 3.93, 80.32 8.37 C87.64 12.82, 94.48 18.82, 98.57 25.8 C102.66 32.77, 105.15 41.9, 104.87 50.22 C104.6 58.55, 101.43 68.47, 96.91 75.75 C92.38 83.03, 85.23 89.91, 77.72 93.89 C70.21 97.87, 60.71 100.12, 51.87 99.65 C43.02 99.18, 32.14 95.34, 24.66 91.07 C17.17 86.8, 11.07 81.21, 6.97 74.02 C2.87 66.83, 0.06 56.47, 0.05 47.94 C0.03 39.41, 1.25 30.26, 6.87 22.83 C12.49 15.39, 28.32 6.81, 33.77 3.36 C39.22 -0.1, 39.51 1.33, 39.58 2.09 M74.75 3.28 C82.24 5.77, 88.43 13.96, 93.26 20.54 C98.08 27.11, 102.65 34.67, 103.73 42.72 C104.8 50.77, 102.99 61.23, 99.7 68.83 C96.41 76.43, 90.63 83.3, 83.99 88.34 C77.34 93.37, 68.8 98.01, 59.82 99.04 C50.85 100.07, 38.24 98.05, 30.15 94.52 C22.05 90.99, 16.05 84.22, 11.25 77.88 C6.44 71.54, 2.63 64.48, 1.32 56.47 C0 48.47, -0.08 37.59, 3.36 29.82 C6.81 22.06, 14.86 14.98, 21.99 9.9 C29.12 4.83, 37.34 0.5, 46.14 -0.63 C54.94 -1.76, 70.22 2.25, 74.78 3.14 C79.34 4.03, 74.29 3.99, 73.49 4.69" stroke="#1e1e1e" stroke-width="2" fill="none"></path></g><g transform="translate(141.240183897532 123.85400482767659) rotate(0 4.6875 9.600000000000023)"><text x="4.6875" y="0" font-family="Cascadia, Segoe UI Emoji" font-size="16px" fill="#1e1e1e" text-anchor="middle" style="white-space: pre;" direction="ltr" dominant-baseline="text-before-edge">A</text></g><g stroke-linecap="round" transform="translate(104.22524415819862 393.0605639515494) rotate(0 52.48356698889097 49.599854033435804)"><path d="M75.39 6.34 C83.21 9.46, 92.51 16.73, 97.31 23.46 C102.11 30.19, 103.98 38.58, 104.18 46.71 C104.39 54.84, 102.23 64.82, 98.54 72.23 C94.85 79.64, 89.24 86.84, 82.06 91.19 C74.87 95.54, 64.21 97.87, 55.44 98.32 C46.67 98.77, 37.13 97.45, 29.44 93.91 C21.76 90.38, 14.36 84.06, 9.32 77.12 C4.29 70.17, -0.06 60.73, -0.77 52.24 C-1.47 43.75, 0.92 33.66, 5.11 26.19 C9.3 18.71, 16.78 11.64, 24.36 7.41 C31.94 3.18, 41.3 0.95, 50.58 0.79 C59.87 0.62, 75.09 5.03, 80.06 6.43 C85.04 7.82, 80.95 8.45, 80.43 9.15 M70.97 2.32 C78.93 4.27, 86.2 12.14, 91.92 18.55 C97.64 24.96, 103.89 32.8, 105.3 40.8 C106.72 48.8, 103.69 58.73, 100.42 66.56 C97.14 74.38, 92.51 82.33, 85.65 87.75 C78.79 93.16, 67.99 97.54, 59.27 99.07 C50.55 100.61, 41.22 100.01, 33.31 96.97 C25.41 93.92, 17.05 87.6, 11.84 80.8 C6.62 74, 3.22 64.42, 2.01 56.16 C0.8 47.89, 1.56 38.99, 4.57 31.22 C7.57 23.45, 13.47 14.63, 20.05 9.54 C26.63 4.45, 35.32 1.58, 44.04 0.7 C52.76 -0.18, 68.12 3.66, 72.37 4.27 C76.62 4.87, 70.01 3.84, 69.55 4.32" stroke="#1e1e1e" stroke-width="2" fill="none"></path></g><g transform="translate(151.90982502838642 432.9880248520798) rotate(0 4.6875 9.600000000000023)"><text x="4.6875" y="0" font-family="Cascadia, Segoe UI Emoji" font-size="16px" fill="#1e1e1e" text-anchor="middle" style="white-space: pre;" direction="ltr" dominant-baseline="text-before-edge">C</text></g><g stroke-linecap="round" transform="translate(481.0521473105946 380.63088125210345) rotate(0 52.48356698889097 49.599854033435804)"><path d="M75.65 5.17 C83.14 7.98, 90.77 15.79, 95.81 22.77 C100.84 29.75, 105.26 38.97, 105.86 47.07 C106.46 55.17, 103.41 63.98, 99.4 71.36 C95.38 78.73, 89.01 86.62, 81.78 91.33 C74.55 96.04, 65.01 99.2, 56.01 99.61 C47.01 100.02, 35.79 97.78, 27.76 93.78 C19.74 89.79, 12.37 82.69, 7.84 75.64 C3.31 68.6, 0.76 59.51, 0.56 51.53 C0.35 43.55, 2.57 35.08, 6.62 27.75 C10.68 20.41, 17.81 12.17, 24.86 7.52 C31.9 2.87, 39.98 0.16, 48.89 -0.15 C57.8 -0.46, 73.22 4.43, 78.34 5.66 C83.47 6.89, 79.97 6.45, 79.62 7.22 M36.19 1.62 C43.86 -1.8, 52.83 -1.69, 61.3 -0.03 C69.77 1.63, 80.43 5.96, 87 11.6 C93.57 17.23, 97.93 25.7, 100.73 33.76 C103.52 41.83, 105.15 51.94, 103.77 60 C102.38 68.05, 97.86 76.19, 92.41 82.08 C86.97 87.97, 79.24 92.72, 71.12 95.34 C63 97.96, 52.42 99.41, 43.69 97.8 C34.95 96.19, 25.55 90.99, 18.7 85.69 C11.85 80.39, 5.39 73.42, 2.59 66.01 C-0.21 58.6, 0.46 49.36, 1.91 41.24 C3.36 33.11, 5.73 23.79, 11.3 17.25 C16.86 10.71, 31.1 4.18, 35.32 1.97 C39.55 -0.24, 36.28 3.09, 36.66 3.97" stroke="#1e1e1e" stroke-width="2" fill="none"></path></g><g transform="translate(528.7367281807824 420.5583421526338) rotate(0 4.6875 9.600000000000023)"><text x="4.6875" y="0" font-family="Cascadia, Segoe UI Emoji" font-size="16px" fill="#1e1e1e" text-anchor="middle" style="white-space: pre;" direction="ltr" dominant-baseline="text-before-edge">G</text></g><g stroke-linecap="round" transform="translate(468.00411690651026 82.88887871636246) rotate(0 52.48356698889097 46.33333672417535)"><path d="M46.65 0.4 C54.94 -1.37, 64.75 -0.24, 72.8 2.74 C80.84 5.71, 89.49 11.93, 94.91 18.27 C100.34 24.62, 104.5 33.17, 105.36 40.81 C106.23 48.45, 103.7 57.22, 100.11 64.12 C96.52 71.02, 90.52 77.61, 83.79 82.2 C77.07 86.79, 68.19 90.39, 59.77 91.67 C51.34 92.94, 41.23 92.77, 33.23 89.84 C25.22 86.9, 17.34 80.33, 11.72 74.05 C6.11 67.76, 0.75 59.79, -0.46 52.12 C-1.67 44.45, 0.82 35.21, 4.45 28.01 C8.08 20.8, 13.77 13.57, 21.31 8.88 C28.85 4.18, 44.71 1.32, 49.69 -0.16 C54.67 -1.64, 51.29 -0.94, 51.21 -0.01 M33.33 2.81 C40.72 -0.29, 50.2 -0.42, 58.77 0.96 C67.35 2.34, 77.66 6.37, 84.77 11.09 C91.89 15.81, 97.96 22.48, 101.47 29.29 C104.97 36.1, 106.92 44.4, 105.79 51.95 C104.66 59.49, 100.26 68.56, 94.69 74.56 C89.12 80.56, 80.73 84.99, 72.37 87.94 C64.01 90.9, 53.12 93, 44.54 92.28 C35.96 91.56, 27.95 88.41, 20.91 83.61 C13.86 78.81, 5.62 70.96, 2.24 63.5 C-1.13 56.04, -1.04 46.43, 0.65 38.83 C2.34 31.22, 6.88 23.83, 12.41 17.87 C17.93 11.9, 30.31 5.11, 33.78 3.06 C37.26 1, 33.2 4.56, 33.25 5.53" stroke="#1e1e1e" stroke-width="2" fill="none"></path></g><g transform="translate(515.6886977766981 119.85959884787371) rotate(0 4.6875 9.600000000000023)"><text x="4.6875" y="0" font-family="Cascadia, Segoe UI Emoji" font-size="16px" fill="#1e1e1e" text-anchor="middle" style="white-space: pre;" direction="ltr" dominant-baseline="text-before-edge">T</text></g><g mask="url(#mask-_GywjuuW86amXhaj_0z8M)" stroke-linecap="round"><g transform="translate(198.92333865777618 128.19261705363238) rotate(0 134.15869591597016 -24.020464688137736)"><path d="M0.68 0.01 C23.92 -7.96, 96.13 -46.78, 140.59 -47.22 C185.05 -47.66, 246.14 -9.95, 267.42 -2.61 M-0.42 -1.03 C22.52 -9.38, 94.31 -48.33, 139.35 -48.91 C184.4 -49.5, 248.33 -12.35, 269.84 -4.53" stroke="#1971c2" stroke-width="2" fill="none"></path></g><g transform="translate(198.92333865777618 128.19261705363238) rotate(0 134.15869591597016 -24.020464688137736)"><path d="M244.91 -6.39 C254.76 -6.72, 265.92 -6.57, 269.84 -4.53 M244.91 -6.39 C253.41 -5.98, 262.74 -4.37, 269.84 -4.53" stroke="#1971c2" stroke-width="2" fill="none"></path></g><g transform="translate(198.92333865777618 128.19261705363238) rotate(0 134.15869591597016 -24.020464688137736)"><path d="M251.94 -21.98 C259.1 -16.13, 267.49 -9.84, 269.84 -4.53 M251.94 -21.98 C257.85 -15.83, 264.6 -8.5, 269.84 -4.53" stroke="#1971c2" stroke-width="2" fill="none"></path></g></g><mask id="mask-_GywjuuW86amXhaj_0z8M"><rect x="0" y="0" fill="#fff" width="567.2407304897165" height="276.23354642990785"></rect><rect x="332.94235891092603" y="67.6516876773569" fill="#000" width="14.239990234375" height="25" opacity="1"></rect></mask><g transform="translate(332.9423589109256 67.6516876773569) rotate(0 0.6892108020140313 36.08819352286491)"><text x="7.1199951171875" y="0" font-family="Virgil, Segoe UI Emoji" font-size="20px" fill="#1971c2" text-anchor="middle" style="white-space: pre;" direction="ltr" dominant-baseline="text-before-edge">2</text></g><g mask="url(#mask-KchqAm_s95m7T6AetkCkr)" stroke-linecap="round"><g transform="translate(150.25894012889012 184.26701210287388) rotate(0 21.24818548266262 103.81209223166735)"><path d="M0.78 -1.12 C7.72 16.84, 41.61 72.15, 41.74 106.81 C41.86 141.47, 7.9 189.97, 1.51 206.85 M-0.27 0.9 C7.04 19.12, 43.37 73.62, 44.05 108.1 C44.73 142.58, 10.48 191.48, 3.82 207.76" stroke="#e03131" stroke-width="2" fill="none"></path></g><g transform="translate(150.25894012889012 184.26701210287388) rotate(0 21.24818548266262 103.81209223166735)"><path d="M7.26 183 C4.13 189.36, 4.15 196.36, 3.82 207.76 M7.26 183 C5.94 187.91, 4.89 195.26, 3.82 207.76" stroke="#e03131" stroke-width="2" fill="none"></path></g><g transform="translate(150.25894012889012 184.26701210287388) rotate(0 21.24818548266262 103.81209223166735)"><path d="M22.37 191 C14.66 195, 10.04 199.55, 3.82 207.76 M22.37 191 C17.45 194.09, 12.84 199.56, 3.82 207.76" stroke="#e03131" stroke-width="2" fill="none"></path></g></g><mask id="mask-KchqAm_s95m7T6AetkCkr"><rect x="0" y="0" fill="#fff" width="292.75531109421524" height="491.89119656620863"></rect><rect x="185.8753138407974" y="279.0538767199199" fill="#000" width="13.759994506835938" height="25" opacity="1"></rect></mask><g transform="translate(185.8753138407974 279.0538767199198) rotate(0 -13.724955362373976 8.531323513578343)"><text x="6.879997253417969" y="0" font-family="Virgil, Segoe UI Emoji" font-size="20px" fill="#e03131" text-anchor="middle" style="white-space: pre;" direction="ltr" dominant-baseline="text-before-edge">0</text></g><g mask="url(#mask-PN7zLTITYwPUOKU3EOMf_)" stroke-linecap="round"><g transform="translate(186.68657310349045 166.14244152365518) rotate(0 149.8412909245892 111.27414847494788)"><path d="M0.6 0.06 C21.34 24.34, 74.35 107.76, 124.16 144.82 C173.96 181.87, 270.12 209.37, 299.43 222.38 M-0.54 -0.95 C20.1 23.59, 73.59 108.82, 123.44 146.25 C173.28 183.67, 269.04 210.63, 298.54 223.61" stroke="#2f9e44" stroke-width="2" fill="none"></path></g><g transform="translate(186.68657310349045 166.14244152365518) rotate(0 149.8412909245892 111.27414847494788)"><path d="M273.54 223.46 C280.57 224.1, 287.06 223, 298.54 223.61 M273.54 223.46 C279.71 223.75, 287.5 224.29, 298.54 223.61" stroke="#2f9e44" stroke-width="2" fill="none"></path></g><g transform="translate(186.68657310349045 166.14244152365518) rotate(0 149.8412909245892 111.27414847494788)"><path d="M279.49 207.42 C284.75 212.54, 289.59 215.89, 298.54 223.61 M279.49 207.42 C284 212.32, 290.09 217.45, 298.54 223.61" stroke="#2f9e44" stroke-width="2" fill="none"></path></g></g><mask id="mask-PN7zLTITYwPUOKU3EOMf_"><rect x="0" y="0" fill="#fff" width="586.3691549526689" height="488.69073847355094"></rect><rect x="307.70076539074034" y="298.6631336174088" fill="#000" width="5.4199981689453125" height="25" opacity="1"></rect></mask><g transform="translate(307.70076539074034 298.6631336174087) rotate(0 28.431586848087136 -21.191529974250102)"><text x="2.7099990844726562" y="0" font-family="Virgil, Segoe UI Emoji" font-size="20px" fill="#2f9e44" text-anchor="middle" style="white-space: pre;" direction="ltr" dominant-baseline="text-before-edge">1</text></g><g mask="url(#mask-9ICSBG39buq0nH4PSgPgc)" stroke-linecap="round"><g transform="translate(487.6626629053817 398.5359964281374) rotate(0 -152.64436802579576 -116.93274487412293)"><path d="M0.73 -1.04 C-20.47 -27.98, -75.42 -122.63, -126.39 -161.25 C-177.35 -199.87, -275.11 -220.6, -305.08 -232.76 M-0.35 1.03 C-21.26 -26.26, -73.32 -123.54, -124.22 -162.8 C-175.12 -202.06, -275.37 -222.77, -305.73 -234.52" stroke="#2f9e44" stroke-width="2" fill="none"></path></g><g transform="translate(487.6626629053817 398.5359964281374) rotate(0 -152.64436802579576 -116.93274487412293)"><path d="M-280.76 -235.77 C-291.68 -236.89, -297.3 -234.34, -305.73 -234.52 M-280.76 -235.77 C-290.34 -235.96, -300.53 -234.78, -305.73 -234.52" stroke="#2f9e44" stroke-width="2" fill="none"></path></g><g transform="translate(487.6626629053817 398.5359964281374) rotate(0 -152.64436802579576 -116.93274487412293)"><path d="M-285.8 -219.42 C-294.92 -226.59, -298.69 -230.05, -305.73 -234.52 M-285.8 -219.42 C-293.29 -226.02, -301.49 -231.24, -305.73 -234.52" stroke="#2f9e44" stroke-width="2" fill="none"></path></g></g><mask id="mask-9ICSBG39buq0nH4PSgPgc"><rect x="0" y="0" fill="#fff" width="892.9513989569731" height="732.4014861763833"></rect><rect x="359.60759858893425" y="223.68659677557378" fill="#000" width="5.4199981689453125" height="25" opacity="1"></rect></mask><g transform="translate(359.6075985889338 223.68659677557378) rotate(0 -24.445518144378866 58.103859433113826)"><text x="2.7099990844726562" y="0" font-family="Virgil, Segoe UI Emoji" font-size="20px" fill="#2f9e44" text-anchor="middle" style="white-space: pre;" direction="ltr" dominant-baseline="text-before-edge">1</text></g><g mask="url(#mask-XRmzmSCeLL7ydNPSMKERQ)" stroke-linecap="round"><g transform="translate(463.4994622388808 131.16166553893822) rotate(0 -132.4883626168771 5.697098142021105)"><path d="M0.3 -0.92 C-20.01 1.4, -78.04 13.95, -122.19 13.69 C-166.34 13.44, -240.84 0.15, -264.6 -2.46 M-1.01 1.21 C-21.35 3.74, -78.6 15.5, -122.63 15.12 C-166.65 14.73, -241.55 2.11, -265.17 -1.11" stroke="#e03131" stroke-width="2" fill="none"></path></g><g transform="translate(463.4994622388808 131.16166553893822) rotate(0 -132.4883626168771 5.697098142021105)"><path d="M-240.68 -6.14 C-248.81 -3.12, -254.23 -2.74, -265.17 -1.11 M-240.68 -6.14 C-247.38 -3.97, -256.32 -1.99, -265.17 -1.11" stroke="#e03131" stroke-width="2" fill="none"></path></g><g transform="translate(463.4994622388808 131.16166553893822) rotate(0 -132.4883626168771 5.697098142021105)"><path d="M-243.17 10.78 C-250.6 9.24, -255.35 5.06, -265.17 -1.11 M-243.17 10.78 C-249.15 7.78, -257.33 4.6, -265.17 -1.11" stroke="#e03131" stroke-width="2" fill="none"></path></g></g><mask id="mask-XRmzmSCeLL7ydNPSMKERQ"><rect x="0" y="0" fill="#fff" width="828.476187472635" height="247.58346424205178"></rect><rect x="333.46774770788033" y="132.56966303251613" fill="#000" width="13.759994506835938" height="25" opacity="1"></rect></mask><g transform="translate(333.46774770788033 132.56966303251613) rotate(0 -2.4038765685268118 4.926792399294811)"><text x="6.879997253417969" y="0" font-family="Virgil, Segoe UI Emoji" font-size="20px" fill="#e03131" text-anchor="middle" style="white-space: pre;" direction="ltr" dominant-baseline="text-before-edge">0</text></g><g mask="url(#mask-oVP5SVaDvxDj7mgaqjGTg)" stroke-linecap="round"><g transform="translate(152.38332971784303 389.6001172053967) rotate(0 -19.609256897488876 -106.12064556114467)"><path d="M-0.4 0.24 C-6.96 -14.21, -40 -52.39, -40.33 -87.79 C-40.65 -123.19, -8.54 -191.49, -2.35 -212.17 M1.59 -0.68 C-4.53 -15.35, -37.41 -54.35, -38.2 -89.37 C-38.98 -124.4, -8.94 -190.61, -3.15 -210.82" stroke="#1971c2" stroke-width="2" fill="none"></path></g><g transform="translate(152.38332971784303 389.6001172053967) rotate(0 -19.609256897488876 -106.12064556114467)"><path d="M-3.06 -185.82 C-2.45 -193.18, -1.16 -196.92, -3.15 -210.82 M-3.06 -185.82 C-1.9 -193.69, -3.9 -200.14, -3.15 -210.82" stroke="#1971c2" stroke-width="2" fill="none"></path></g><g transform="translate(152.38332971784303 389.6001172053967) rotate(0 -19.609256897488876 -106.12064556114467)"><path d="M-19.15 -191.62 C-15.05 -197.64, -10.22 -200.1, -3.15 -210.82 M-19.15 -191.62 C-13.12 -197.75, -10.2 -202.44, -3.15 -210.82" stroke="#1971c2" stroke-width="2" fill="none"></path></g></g><mask id="mask-oVP5SVaDvxDj7mgaqjGTg"><rect x="0" y="0" fill="#fff" width="291.6018435128208" height="701.8414083276859"></rect><rect x="106.04482080567777" y="288.28174937698304" fill="#000" width="14.239990234375" height="25" opacity="1"></rect></mask><g transform="translate(106.04482080567777 288.28174937698304) rotate(0 26.968450275120176 -4.647547185511598)"><text x="7.1199951171875" y="0" font-family="Virgil, Segoe UI Emoji" font-size="20px" fill="#1971c2" text-anchor="middle" style="white-space: pre;" direction="ltr" dominant-baseline="text-before-edge">2</text></g><g mask="url(#mask-U17ANGg49GGsH7yjjSl0I)" stroke-linecap="round"><g transform="translate(519.4485810683341 377.6428591272239) rotate(0 -13.226103977215871 -100.2896837464786)"><path d="M0.3 0.61 C-5.51 -17.8, -36.23 -76.42, -35.08 -109.86 C-33.93 -143.3, 0.06 -185.07, 7.18 -200.03 M-1 -0.12 C-6.41 -18.95, -33.97 -78.09, -32.79 -111.75 C-31.61 -145.41, -0.69 -187.1, 6.08 -202.08" stroke="#e03131" stroke-width="2" fill="none"></path></g><g transform="translate(519.4485810683341 377.6428591272239) rotate(0 -13.226103977215871 -100.2896837464786)"><path d="M1.97 -177.42 C4.01 -185.68, 4.91 -192.38, 6.08 -202.08 M1.97 -177.42 C4.35 -185.96, 5.44 -194.91, 6.08 -202.08" stroke="#e03131" stroke-width="2" fill="none"></path></g><g transform="translate(519.4485810683341 377.6428591272239) rotate(0 -13.226103977215871 -100.2896837464786)"><path d="M-12.92 -185.83 C-6.65 -191.77, -1.57 -196.1, 6.08 -202.08 M-12.92 -185.83 C-5.4 -191.59, 0.85 -197.63, 6.08 -202.08" stroke="#e03131" stroke-width="2" fill="none"></path></g></g><mask id="mask-U17ANGg49GGsH7yjjSl0I"><rect x="0" y="0" fill="#fff" width="661.5705783731928" height="678.2222266201811"></rect><rect x="478.2814811852704" y="254.83066149291585" fill="#000" width="13.759994506835938" height="25" opacity="1"></rect></mask><g transform="translate(478.2814811852704 254.83066149291597) rotate(0 27.20251946033568 22.07604032502354)"><text x="6.879997253417969" y="0" font-family="Virgil, Segoe UI Emoji" font-size="20px" fill="#e03131" text-anchor="middle" style="white-space: pre;" direction="ltr" dominant-baseline="text-before-edge">0</text></g><g mask="url(#mask-o9YR2pIxPGr5tNYRbI6sl)" stroke-linecap="round"><g transform="translate(478.3391121754689 430.5853655826296) rotate(0 -134.71749546495857 23.339803933908797)"><path d="M-0.63 -0.03 C-23.88 7.64, -94.42 44.93, -139.25 45.75 C-184.07 46.57, -247.86 11.63, -269.58 4.9 M1.24 -1.09 C-22.1 6.73, -94.4 45.61, -139.67 46.8 C-184.95 48, -248.8 12.79, -270.42 6.08" stroke="#1971c2" stroke-width="2" fill="none"></path></g><g transform="translate(478.3391121754689 430.5853655826296) rotate(0 -134.71749546495857 23.339803933908797)"><path d="M-245.44 7.08 C-253.5 8.29, -263.02 6.07, -270.42 6.08 M-245.44 7.08 C-251.88 6.27, -258.96 6.07, -270.42 6.08" stroke="#1971c2" stroke-width="2" fill="none"></path></g><g transform="translate(478.3391121754689 430.5853655826296) rotate(0 -134.71749546495857 23.339803933908797)"><path d="M-251.93 22.91 C-257.87 19.07, -265.3 11.77, -270.42 6.08 M-251.93 22.91 C-256.55 17.68, -261.82 13.06, -270.42 6.08" stroke="#1971c2" stroke-width="2" fill="none"></path></g></g><mask id="mask-o9YR2pIxPGr5tNYRbI6sl"><rect x="0" y="0" fill="#fff" width="847.7741031053863" height="577.2649734504473"></rect><rect x="330.97443133118304" y="464.7649734504471" fill="#000" width="14.239990234375" height="25" opacity="1"></rect></mask><g transform="translate(330.9744313311835 464.7649734504471) rotate(0 12.776346341422595 -11.30883949463481)"><text x="7.1199951171875" y="0" font-family="Virgil, Segoe UI Emoji" font-size="20px" fill="#1971c2" text-anchor="middle" style="white-space: pre;" direction="ltr" dominant-baseline="text-before-edge">2</text></g><g mask="url(#mask-XdYAbF65NJFy8pWympntS)" stroke-linecap="round"><g transform="translate(534.9060029117736 176.0814126561262) rotate(0 10.54167813742788 100.73618528913357)"><path d="M-0.24 0.11 C4.4 16.37, 28.59 62.96, 27.7 96.68 C26.82 130.39, 0.11 184.99, -5.55 202.41 M-1.82 -0.87 C2.66 15.07, 27.38 61.12, 26.73 94.69 C26.08 128.26, -0.3 182.65, -5.73 200.57" stroke="#1971c2" stroke-width="2" fill="none"></path></g><g transform="translate(534.9060029117736 176.0814126561262) rotate(0 10.54167813742788 100.73618528913357)"><path d="M-5.38 175.57 C-5.47 182.73, -5.32 191.92, -5.73 200.57 M-5.38 175.57 C-5.94 185.42, -5.4 193.74, -5.73 200.57" stroke="#1971c2" stroke-width="2" fill="none"></path></g><g transform="translate(534.9060029117736 176.0814126561262) rotate(0 10.54167813742788 100.73618528913357)"><path d="M10.61 181.64 C5.93 187.01, 1.44 194.44, -5.73 200.57 M10.61 181.64 C3.98 189.16, -1.54 195.18, -5.73 200.57" stroke="#1971c2" stroke-width="2" fill="none"></path></g></g><mask id="mask-XdYAbF65NJFy8pWympntS"><rect x="0" y="0" fill="#fff" width="669.3317682377956" height="477.55378323439334"></rect><rect x="555.540568595025" y="259.9945113797777" fill="#000" width="14.239990234375" height="25" opacity="1"></rect></mask><g transform="translate(555.5405685950245 259.9945113797776) rotate(0 -9.634694048967958 16.8576896895986)"><text x="7.1199951171875" y="0" font-family="Virgil, Segoe UI Emoji" font-size="20px" fill="#1971c2" text-anchor="middle" style="white-space: pre;" direction="ltr" dominant-baseline="text-before-edge">2</text></g><g mask="url(#mask-tNFgpFnxiNeHMzXLq4B6M)" stroke-linecap="round"><g transform="translate(210.0575888269468 423.0511610874961) rotate(0 134.95128633260924 -21.548215081052717)"><path d="M0.71 0.41 C22.77 -7.78, 86.9 -48.91, 131.77 -48.29 C176.63 -47.68, 246.97 -4.79, 269.93 4.08 M-0.37 -0.42 C22.12 -8.56, 89.09 -48.24, 134.01 -47.28 C178.94 -46.32, 246.58 -3, 269.18 5.34" stroke="#e03131" stroke-width="2" fill="none"></path></g><g transform="translate(210.0575888269468 423.0511610874961) rotate(0 134.95128633260924 -21.548215081052717)"><path d="M244.31 2.79 C251.23 1.8, 255.11 3.96, 269.18 5.34 M244.31 2.79 C251.24 2.63, 259.19 4.66, 269.18 5.34" stroke="#e03131" stroke-width="2" fill="none"></path></g><g transform="translate(210.0575888269468 423.0511610874961) rotate(0 134.95128633260924 -21.548215081052717)"><path d="M251.76 -12.6 C256.93 -9.69, 258.94 -3.68, 269.18 5.34 M251.76 -12.6 C256.48 -8.25, 262.27 -1.74, 269.18 5.34" stroke="#e03131" stroke-width="2" fill="none"></path></g></g><mask id="mask-tNFgpFnxiNeHMzXLq4B6M"><rect x="0" y="0" fill="#fff" width="579.9601614921653" height="574.540304654876"></rect><rect x="335.8283875244674" y="363.25837422275345" fill="#000" width="13.759994506835938" height="25" opacity="1"></rect></mask><g transform="translate(335.82838752446696 363.25837422275356) rotate(0 9.008834935095592 38.312169722555836)"><text x="6.879997253417969" y="0" font-family="Virgil, Segoe UI Emoji" font-size="20px" fill="#e03131" text-anchor="middle" style="white-space: pre;" direction="ltr" dominant-baseline="text-before-edge">0</text></g><g mask="url(#mask-ZZmomn-C49RyRbfP0WrTd)" stroke-linecap="round"><g transform="translate(190.44828792749013 398.8280778663951) rotate(0 141.13226412241943 -121.57853101445994)"><path d="M-0.01 -0.91 C17.61 -26.66, 58.65 -113.59, 105.72 -154.04 C152.8 -194.5, 253 -228.87, 282.44 -243.63 M-1.47 1.22 C16.06 -24.42, 57.97 -112.21, 105.17 -152.84 C152.38 -193.47, 252.19 -227.22, 281.77 -242.57" stroke="#2f9e44" stroke-width="2" fill="none"></path></g><g transform="translate(190.44828792749013 398.8280778663951) rotate(0 141.13226412241943 -121.57853101445994)"><path d="M263.67 -225.33 C267.52 -229.24, 273.44 -235.39, 281.77 -242.57 M263.67 -225.33 C267.97 -230.12, 272.86 -235.31, 281.77 -242.57" stroke="#2f9e44" stroke-width="2" fill="none"></path></g><g transform="translate(190.44828792749013 398.8280778663951) rotate(0 141.13226412241943 -121.57853101445994)"><path d="M256.82 -241 C262.79 -240.21, 270.76 -241.64, 281.77 -242.57 M256.82 -241 C262.92 -241.74, 269.59 -242.85, 281.77 -242.57" stroke="#2f9e44" stroke-width="2" fill="none"></path></g></g><mask id="mask-ZZmomn-C49RyRbfP0WrTd"><rect x="0" y="0" fill="#fff" width="572.712816172329" height="741.985139895315"></rect><rect x="292.70551082473503" y="232.91446943263713" fill="#000" width="5.4199981689453125" height="25" opacity="1"></rect></mask><g transform="translate(292.70551082473503 232.9144694326369) rotate(0 38.23111072652887 44.70597729556579)"><text x="2.7099990844726562" y="0" font-family="Virgil, Segoe UI Emoji" font-size="20px" fill="#2f9e44" text-anchor="middle" style="white-space: pre;" direction="ltr" dominant-baseline="text-before-edge">1</text></g><g mask="url(#mask-s6_OWNqPUVbvYUR1N9Lmn)" stroke-linecap="round"><g transform="translate(480.0128534303626 165.72539124186244) rotate(0 -147.08921791422586 121.74199143051146)"><path d="M0.69 -1.15 C-17.72 22.03, -61.54 98.33, -110.79 139.13 C-160.04 179.94, -264.18 226.2, -294.79 243.69 M-0.41 0.85 C-18.85 24.2, -61.9 99.68, -111.14 140.39 C-160.39 181.1, -265.34 228.2, -295.88 245.11" stroke="#2f9e44" stroke-width="2" fill="none"></path></g><g transform="translate(480.0128534303626 165.72539124186244) rotate(0 -147.08921791422586 121.74199143051146)"><path d="M-278.81 226.85 C-285.41 233.85, -289.07 235.95, -295.88 245.11 M-278.81 226.85 C-283.38 232.19, -289.35 238.1, -295.88 245.11" stroke="#2f9e44" stroke-width="2" fill="none"></path></g><g transform="translate(480.0128534303626 165.72539124186244) rotate(0 -147.08921791422586 121.74199143051146)"><path d="M-271.06 242.1 C-279.8 244.96, -285.58 242.87, -295.88 245.11 M-271.06 242.1 C-278.05 242.64, -286.48 243.72, -295.88 245.11" stroke="#2f9e44" stroke-width="2" fill="none"></path></g></g><mask id="mask-s6_OWNqPUVbvYUR1N9Lmn"><rect x="0" y="0" fill="#fff" width="874.1912892588145" height="509.20937410288536"></rect><rect x="365.3750244998446" y="292.89570770649834" fill="#000" width="5.4199981689453125" height="25" opacity="1"></rect></mask><g transform="translate(365.3750244998437 292.89570770649846) rotate(0 -32.95634937664909 -5.191452723928364)"><text x="2.7099990844726562" y="0" font-family="Virgil, Segoe UI Emoji" font-size="20px" fill="#2f9e44" text-anchor="middle" style="white-space: pre;" direction="ltr" dominant-baseline="text-before-edge">1</text></g><g stroke-linecap="round"><g transform="translate(35.777791341145985 34.88889906141503) rotate(0 35.555572509765625 30.666664971245666)"><path d="M-0.54 -0.42 C11.3 9.83, 59.75 50.58, 71.88 60.91 M1.38 -1.69 C13.05 8.79, 59.55 51.45, 71.34 62.23" stroke="#1e1e1e" stroke-width="2" fill="none"></path></g><g transform="translate(35.777791341145985 34.88889906141503) rotate(0 35.555572509765625 30.666664971245666)"><path d="M48.24 52.67 C56.14 57.64, 64.79 61.9, 71.34 62.23 M48.24 52.67 C55.06 54.9, 63.73 57.74, 71.34 62.23" stroke="#1e1e1e" stroke-width="2" fill="none"></path></g><g transform="translate(35.777791341145985 34.88889906141503) rotate(0 35.555572509765625 30.666664971245666)"><path d="M59.79 40.06 C63.29 49.7, 67.62 58.68, 71.34 62.23 M59.79 40.06 C62.88 46.36, 67.89 53.19, 71.34 62.23" stroke="#1e1e1e" stroke-width="2" fill="none"></path></g></g><mask></mask><g transform="translate(10 10) rotate(0 27.699966430664062 12.5)"><text x="0" y="0" font-family="Virgil, Segoe UI Emoji" font-size="20px" fill="#1e1e1e" text-anchor="start" style="white-space: pre;" direction="ltr" dominant-baseline="text-before-edge">start</text></g><g stroke-linecap="round" transform="translate(115.77782524956638 104.22225952148449) rotate(0 31.55554877387158 28.888888888888914)"><path d="M23.12 1.11 C29.19 -0.91, 38.67 0.37, 44.75 3.02 C50.83 5.68, 56.85 11.49, 59.61 17.05 C62.37 22.61, 62.9 30.4, 61.32 36.4 C59.74 42.4, 55.33 49.38, 50.12 53.03 C44.91 56.67, 36.91 58.98, 30.06 58.25 C23.21 57.53, 13.89 53.11, 9.01 48.66 C4.13 44.21, 1.36 37.41, 0.79 31.56 C0.22 25.7, 0.76 18.82, 5.59 13.52 C10.42 8.22, 24.62 1.67, 29.77 -0.25 C34.93 -2.17, 36.39 1.34, 36.52 2 M34.43 -0.22 C40.88 -0.41, 48.48 3.92, 53.34 8.07 C58.19 12.22, 62.97 18.33, 63.56 24.67 C64.14 31.01, 60.74 40.82, 56.85 46.08 C52.95 51.34, 46.31 54.63, 40.17 56.24 C34.03 57.85, 26.38 58.21, 20 55.75 C13.63 53.28, 5.03 47.05, 1.93 41.43 C-1.17 35.81, -0.59 28.23, 1.41 22.02 C3.4 15.82, 8.66 7.66, 13.89 4.19 C19.12 0.72, 29.61 1.59, 32.79 1.22 C35.97 0.84, 32.93 1.56, 32.95 1.92" stroke="#1e1e1e" stroke-width="2" fill="none"></path></g><g stroke-linecap="round" transform="translate(486.88890245225684 100.00000000000011) rotate(0 31.55554877387158 28.888888888888914)"><path d="M29.83 -0.91 C36.43 -1.9, 45.8 0.82, 51.04 4.79 C56.29 8.77, 59.85 16.81, 61.29 22.96 C62.73 29.11, 62.39 36.14, 59.66 41.69 C56.93 47.25, 50.99 53.86, 44.9 56.29 C38.82 58.73, 29.84 58.16, 23.16 56.28 C16.49 54.4, 8.68 50.29, 4.88 45.02 C1.07 39.76, -0.56 30.8, 0.34 24.67 C1.23 18.55, 4.17 12.26, 10.24 8.26 C16.31 4.26, 30.94 1.63, 36.75 0.68 C42.57 -0.27, 44.97 2.09, 45.12 2.57 M36.97 -0.3 C43.63 0.26, 51.38 4.27, 55.83 9.09 C60.27 13.92, 63.47 22.37, 63.63 28.67 C63.79 34.98, 61.06 42.18, 56.8 46.92 C52.53 51.65, 44.85 55.61, 38.04 57.07 C31.23 58.54, 21.95 58.65, 15.95 55.72 C9.94 52.79, 4.5 45.45, 1.99 39.51 C-0.52 33.56, -1.19 26.11, 0.89 20.03 C2.96 13.96, 8.52 6.46, 14.45 3.07 C20.39 -0.31, 33.14 0.28, 36.51 -0.28 C39.89 -0.84, 34.76 -0.67, 34.72 -0.29" stroke="#1e1e1e" stroke-width="2" fill="none"></path></g><g stroke-linecap="round" transform="translate(502.88892957899316 403.5555691189235) rotate(0 31.55554877387158 28.888888888888914)"><path d="M16.12 3.89 C21.54 0.99, 31.55 -0.9, 38.46 0.5 C45.37 1.9, 53.36 7.34, 57.58 12.26 C61.81 17.18, 64.32 23.92, 63.8 30.01 C63.27 36.1, 59.14 44.35, 54.45 48.81 C49.76 53.26, 42.26 55.94, 35.65 56.74 C29.04 57.54, 20.63 56.8, 14.78 53.61 C8.93 50.42, 2.55 43.7, 0.55 37.59 C-1.45 31.49, -1.03 23.01, 2.76 16.97 C6.56 10.93, 18.95 4.14, 23.32 1.34 C27.69 -1.45, 29.05 -0.34, 28.97 0.2 M25.85 1.27 C32.01 -0.14, 41.24 0.86, 47.09 3.69 C52.94 6.52, 58.67 12.29, 60.95 18.25 C63.23 24.21, 62.96 33.6, 60.76 39.46 C58.56 45.32, 53.5 50.4, 47.74 53.42 C41.97 56.45, 32.88 58.73, 26.16 57.61 C19.44 56.5, 11.71 51.49, 7.43 46.73 C3.15 41.97, 0.77 35.2, 0.48 29.03 C0.18 22.86, 1.4 14.65, 5.66 9.71 C9.92 4.77, 22.86 0.66, 26.03 -0.62 C29.2 -1.91, 24.87 1.21, 24.69 2" stroke="#1e1e1e" stroke-width="2" fill="none"></path></g><g stroke-linecap="round" transform="translate(123.55556911892381 414.44444444444446) rotate(0 31.55554877387158 28.888888888888914)"><path d="M42.98 2.51 C49.3 4.11, 56.22 8.71, 59.46 13.95 C62.7 19.19, 63.62 27.94, 62.4 33.95 C61.19 39.97, 57.22 46, 52.18 50.04 C47.13 54.09, 39.06 57.99, 32.14 58.2 C25.21 58.42, 15.84 55.46, 10.62 51.33 C5.41 47.2, 1.82 39.5, 0.84 33.42 C-0.15 27.35, 1.38 20.21, 4.7 14.86 C8.02 9.51, 14.49 3.37, 20.78 1.33 C27.06 -0.71, 38.62 2.28, 42.41 2.63 C46.2 2.98, 43.65 3.04, 43.52 3.44 M38.88 0.69 C45.03 1.9, 52.19 8.06, 56.18 13.02 C60.16 17.99, 63.18 24.5, 62.79 30.47 C62.39 36.45, 58.48 44.58, 53.8 48.89 C49.12 53.2, 41.25 55.72, 34.73 56.31 C28.2 56.91, 20.43 55.82, 14.66 52.44 C8.89 49.05, 1.98 42.02, 0.09 35.99 C-1.8 29.96, 0.55 21.57, 3.31 16.23 C6.08 10.88, 10.92 6.38, 16.68 3.92 C22.43 1.46, 34.31 1.81, 37.87 1.49 C41.42 1.18, 37.77 1.48, 38.02 2.05" stroke="#1e1e1e" stroke-width="2" fill="none"></path></g></svg>